<svg version="1.1" viewBox="0.0 0.0 960.0 540.0" fill="none" stroke="none" stroke-linecap="square" stroke-miterlimit="10" xmlns:xlink="http://www.w3.org/1999/xlink" xmlns="http://www.w3.org/2000/svg"><clipPath id="p.0"><path d="m0 0l960.0 0l0 540.0l-960.0 0l0 -540.0z" clip-rule="nonzero"/></clipPath><g clip-path="url(#p.0)"><path fill="#ffffff" d="m0 0l960.0 0l0 540.0l-960.0 0z" fill-rule="evenodd"/><path fill="#eeeeee" d="m35.217846 56.83761c0 -9.355686 7.5842857 -16.939972 16.939972 -16.939972l168.1358 0c4.492752 0 8.801514 1.7847443 11.978363 4.961605c3.1768646 3.1768608 4.961609 7.485607 4.961609 11.978367l0 67.75785c0 9.355698 -7.5842896 16.939972 -16.939972 16.939972l-168.1358 0c-9.355686 0 -16.939972 -7.5842743 -16.939972 -16.939972z" fill-rule="evenodd"/><path stroke="#595959" stroke-width="1.0" stroke-linejoin="round" stroke-linecap="butt" d="m35.217846 56.83761c0 -9.355686 7.5842857 -16.939972 16.939972 -16.939972l168.1358 0c4.492752 0 8.801514 1.7847443 11.978363 4.961605c3.1768646 3.1768608 4.961609 7.485607 4.961609 11.978367l0 67.75785c0 9.355698 -7.5842896 16.939972 -16.939972 16.939972l-168.1358 0c-9.355686 0 -16.939972 -7.5842743 -16.939972 -16.939972z" fill-rule="evenodd"/><path fill="#000000" fill-opacity="0.0" d="m35.217846 55.17323l202.01575 0l0 71.08661l-202.01575 0z" fill-rule="evenodd"/><path fill="#595959" d="m63.03211 80.60635l1.8437538 0.234375q-0.296875 1.90625 -1.5468788 2.984375q-1.25 1.078125 -3.0625 1.078125q-2.265625 0 -3.65625 -1.484375q-1.375 -1.484375 -1.375 -4.25q0 -1.796875 0.59375 -3.140625q0.59375 -1.34375 1.8125 -2.015625q1.21875 -0.671875 2.640625 -0.671875q1.796875 0 2.9375 0.921875q1.1562538 0.90625 1.4843788 2.578125l-1.8281288 0.28125q-0.265625 -1.109375 -0.921875 -1.671875q-0.65625 -0.5625 -1.59375 -0.5625q-1.421875 0 -2.3125 1.015625q-0.875 1.015625 -0.875 3.203125q0 2.234375 0.84375 3.25q0.859375 1.0 2.234375 1.0q1.109375 0 1.84375 -0.671875q0.734375 -0.671875 0.9375 -2.078125zm2.7421913 -1.484375q0 -3.078125 1.71875 -4.546875q1.421875 -1.234375 3.46875 -1.234375q2.28125 0 3.71875 1.5q1.453125 1.484375 1.453125 4.125q0 2.140625 -0.640625 3.359375q-0.625 1.21875 -1.859375 1.90625q-1.21875 0.671875 -2.671875 0.671875q-2.3125 0 -3.75 -1.484375q-1.4375 -1.5 -1.4375 -4.296875zm1.9375 0q0 2.125 0.921875 3.1875q0.921875 1.046875 2.328125 1.046875q1.40625 0 2.328125 -1.0625q0.921875 -1.0625 0.921875 -3.234375q0 -2.046875 -0.9375 -3.109375q-0.921875 -1.0625 -2.3125 -1.0625q-1.40625 0 -2.328125 1.0625q-0.921875 1.046875 -0.921875 3.171875zm10.627319 5.53125l0 -11.0625l1.671875 0l0 1.546875q0.53125 -0.8125 1.390625 -1.296875q0.859375 -0.5 1.96875 -0.5q1.234375 0 2.015625 0.515625q0.78125 0.5 1.109375 1.421875q1.3125 -1.9375 3.40625 -1.9375q1.65625 0 2.53125 0.921875q0.890625 0.90625 0.890625 2.796875l0 7.59375l-1.859375 0l0 -6.96875q0 -1.125 -0.1875 -1.609375q-0.1875 -0.5 -0.671875 -0.796875q-0.46875 -0.3125 -1.109375 -0.3125q-1.171875 0 -1.9375 0.78125q-0.765625 0.765625 -0.765625 2.484375l0 6.421875l-1.875 0l0 -7.1875q0 -1.25 -0.46875 -1.875q-0.453125 -0.625 -1.5 -0.625q-0.78125 0 -1.453125 0.421875q-0.671875 0.40625 -0.984375 1.21875q-0.296875 0.796875 -0.296875 2.3125l0 5.734375l-1.875 0zm17.766495 4.234375l0 -15.296875l1.703125 0l0 1.4375q0.609375 -0.84375 1.359375 -1.265625q0.765625 -0.421875 1.859375 -0.421875q1.40625 0 2.484375 0.734375q1.09375 0.71875 1.640625 2.046875q0.546875 1.328125 0.546875 2.921875q0 1.6875 -0.609375 3.046875q-0.59375 1.359375 -1.765625 2.09375q-1.15625 0.71875 -2.4375 0.71875q-0.9375 0 -1.6875 -0.390625q-0.734375 -0.40625 -1.21875 -1.0l0 5.375l-1.875 0zm1.703125 -9.703125q0 2.140625 0.859375 3.15625q0.859375 1.015625 2.09375 1.015625q1.25 0 2.140625 -1.046875q0.890625 -1.0625 0.890625 -3.28125q0 -2.109375 -0.875 -3.15625q-0.859375 -1.0625 -2.078125 -1.0625q-1.1875 0 -2.109375 1.125q-0.921875 1.109375 -0.921875 3.25zm17.40857 5.46875l0 -1.625q-1.296875 1.875 -3.515625 1.875q-0.96875 0 -1.828125 -0.375q-0.84375 -0.375 -1.265625 -0.9375q-0.40625 -0.578125 -0.5625 -1.390625q-0.125 -0.5625 -0.125 -1.75l0 -6.859375l1.875 0l0 6.140625q0 1.46875 0.125 1.96875q0.171875 0.75 0.734375 1.171875q0.578125 0.421875 1.421875 0.421875q0.84375 0 1.578125 -0.4375q0.75 -0.4375 1.046875 -1.171875q0.3125 -0.75 0.3125 -2.171875l0 -5.921875l1.875 0l0 11.0625l-1.671875 0zm8.705444 -1.671875l0.265625 1.65625q-0.78125 0.15625 -1.40625 0.15625q-1.03125 0 -1.59375 -0.3125q-0.5625 -0.328125 -0.796875 -0.84375q-0.21875 -0.53125 -0.21875 -2.21875l0 -6.375l-1.375 0l0 -1.453125l1.375 0l0 -2.734375l1.859375 -1.125l0 3.859375l1.890625 0l0 1.453125l-1.890625 0l0 6.46875q0 0.8125 0.09375 1.046875q0.109375 0.21875 0.328125 0.359375q0.234375 0.125 0.640625 0.125q0.3125 0 0.828125 -0.0625zm9.410011 -1.890625l1.921875 0.234375q-0.453125 1.703125 -1.6875 2.640625q-1.234375 0.9375 -3.171875 0.9375q-2.4218674 0 -3.8437424 -1.484375q-1.421875 -1.5 -1.421875 -4.203125q0 -2.796875 1.4375 -4.328125q1.4374924 -1.546875 3.7343674 -1.546875q2.21875 0 3.609375 1.515625q1.40625 1.5 1.40625 4.25q0 0.15625 0 0.5l-8.249992 0q0.109375 1.8125 1.0312424 2.78125q0.921875 0.96875 2.3125 0.96875q1.03125 0 1.75 -0.53125q0.734375 -0.546875 1.171875 -1.734375zm-6.1562424 -3.03125l6.1718674 0q-0.125 -1.390625 -0.703125 -2.09375q-0.90625 -1.078125 -2.328125 -1.078125q-1.296875 0 -2.171875 0.859375q-0.8749924 0.859375 -0.9687424 2.3125zm16.365456 6.59375l0 -15.265625l1.875 0l0 5.46875q1.3125 -1.515625 3.3125 -1.515625q1.234375 0 2.140625 0.484375q0.90625 0.484375 1.296875 1.34375q0.390625 0.84375 0.390625 2.46875l0 7.015625l-1.875 0l0 -7.015625q0 -1.40625 -0.609375 -2.046875q-0.609375 -0.640625 -1.734375 -0.640625q-0.828125 0 -1.5625 0.4375q-0.734375 0.4375 -1.046875 1.171875q-0.3125 0.734375 -0.3125 2.046875l0 6.046875l-1.875 0zm19.43982 -3.5625l1.921875 0.234375q-0.453125 1.703125 -1.6875 2.640625q-1.234375 0.9375 -3.171875 0.9375q-2.421875 0 -3.84375 -1.484375q-1.421875 -1.5 -1.421875 -4.203125q0 -2.796875 1.4375 -4.328125q1.4375 -1.546875 3.734375 -1.546875q2.21875 0 3.609375 1.515625q1.40625 1.5 1.40625 4.25q0 0.15625 0 0.5l-8.25 0q0.109375 1.8125 1.03125 2.78125q0.921875 0.96875 2.3125 0.96875q1.03125 0 1.75 -0.53125q0.734375 -0.546875 1.171875 -1.734375zm-6.15625 -3.03125l6.171875 0q-0.125 -1.390625 -0.703125 -2.09375q-0.90625 -1.078125 -2.328125 -1.078125q-1.296875 0 -2.171875 0.859375q-0.875 0.859375 -0.96875 2.3125zm17.65857 5.234375q-1.046875 0.875 -2.015625 1.25q-0.953125 0.359375 -2.0625 0.359375q-1.8125 0 -2.796875 -0.890625q-0.984375 -0.890625 -0.984375 -2.28125q0 -0.8125 0.375 -1.484375q0.375 -0.671875 0.96875 -1.078125q0.59375 -0.40625 1.34375 -0.609375q0.5625 -0.140625 1.671875 -0.28125q2.265625 -0.265625 3.34375 -0.640625q0.015625 -0.390625 0.015625 -0.5q0 -1.140625 -0.53125 -1.609375q-0.71875 -0.640625 -2.140625 -0.640625q-1.328125 0 -1.953125 0.46875q-0.625 0.46875 -0.9375 1.640625l-1.828125 -0.25q0.25 -1.171875 0.8125 -1.890625q0.578125 -0.734375 1.65625 -1.125q1.09375 -0.390625 2.515625 -0.390625q1.421875 0 2.296875 0.34375q0.890625 0.328125 1.3125 0.828125q0.421875 0.5 0.578125 1.28125q0.09375 0.46875 0.09375 1.71875l0 2.5q0 2.625 0.125 3.3125q0.125 0.6875 0.46875 1.328125l-1.953125 0q-0.296875 -0.578125 -0.375 -1.359375zm-0.15625 -4.1875q-1.015625 0.40625 -3.0625 0.703125q-1.15625 0.171875 -1.640625 0.375q-0.46875 0.203125 -0.734375 0.609375q-0.265625 0.40625 -0.265625 0.890625q0 0.75 0.5625 1.25q0.578125 0.5 1.671875 0.5q1.078125 0 1.921875 -0.46875q0.84375 -0.484375 1.25 -1.296875q0.296875 -0.640625 0.296875 -1.875l0 -0.6875zm11.971069 5.546875l0 -1.390625q-1.046875 1.640625 -3.09375 1.640625q-1.3125 0 -2.421875 -0.71875q-1.109375 -0.734375 -1.71875 -2.046875q-0.609375 -1.3125 -0.609375 -3.0q0 -1.65625 0.546875 -3.0q0.546875 -1.359375 1.65625 -2.078125q1.109375 -0.71875 2.46875 -0.71875q1.0 0 1.78125 0.421875q0.78125 0.421875 1.265625 1.09375l0 -5.46875l1.875 0l0 15.265625l-1.75 0zm-5.921875 -5.515625q0 2.125 0.890625 3.171875q0.90625 1.046875 2.125 1.046875q1.21875 0 2.078125 -1.0q0.859375 -1.0 0.859375 -3.0625q0 -2.28125 -0.875 -3.34375q-0.875 -1.0625 -2.15625 -1.0625q-1.25 0 -2.09375 1.03125q-0.828125 1.015625 -0.828125 3.21875zm10.627319 -7.59375l0 -2.15625l1.875 0l0 2.15625l-1.875 0zm0 13.109375l0 -11.0625l1.875 0l0 11.0625l-1.875 0zm4.722809 0l0 -11.0625l1.6875 0l0 1.578125q1.21875 -1.828125 3.515625 -1.828125q1.0 0 1.84375 0.359375q0.84375 0.359375 1.25 0.953125q0.421875 0.578125 0.59375 1.375q0.09375 0.515625 0.09375 1.828125l0 6.796875l-1.875 0l0 -6.734375q0 -1.140625 -0.21875 -1.703125q-0.21875 -0.578125 -0.78125 -0.90625q-0.546875 -0.34375 -1.296875 -0.34375q-1.203125 0 -2.078125 0.765625q-0.859375 0.75 -0.859375 2.875l0 6.046875l-1.875 0zm11.517944 0.921875l1.828125 0.265625q0.109375 0.84375 0.625 1.234375q0.703125 0.515625 1.90625 0.515625q1.3125 0 2.015625 -0.53125q0.703125 -0.515625 0.953125 -1.453125q0.15625 -0.5625 0.140625 -2.40625q-1.234375 1.453125 -3.0625 1.453125q-2.28125 0 -3.53125 -1.640625q-1.25 -1.65625 -1.25 -3.953125q0 -1.578125 0.5625 -2.921875q0.578125 -1.34375 1.671875 -2.0625q1.09375 -0.734375 2.5625 -0.734375q1.953125 0 3.21875 1.578125l0 -1.328125l1.734375 0l0 9.5625q0 2.578125 -0.53125 3.65625q-0.515625 1.078125 -1.65625 1.703125q-1.140625 0.625 -2.8125 0.625q-1.984375 0 -3.203125 -0.890625q-1.21875 -0.890625 -1.171875 -2.671875zm1.546875 -6.65625q0 2.1875 0.859375 3.1875q0.875 1.0 2.171875 1.0q1.296875 0 2.171875 -1.0q0.875 -1.0 0.875 -3.125q0 -2.03125 -0.90625 -3.0625q-0.890625 -1.03125 -2.171875 -1.03125q-1.25 0 -2.125 1.015625q-0.875 1.015625 -0.875 3.015625z" fill-rule="nonzero"/><path fill="#595959" d="m74.15364 108.58135l0.265625 1.65625q-0.78125 0.15625 -1.40625 0.15625q-1.03125 0 -1.59375 -0.3125q-0.5625 -0.328125 -0.796875 -0.84375q-0.21875 -0.53125 -0.21875 -2.21875l0 -6.375l-1.375 0l0 -1.453125l1.375 0l0 -2.734375l1.859375 -1.125l0 3.859375l1.890625 0l0 1.453125l-1.890625 0l0 6.46875q0 0.8125 0.09375 1.046875q0.109375 0.21875 0.328125 0.359375q0.234375 0.125 0.640625 0.125q0.3125 0 0.828125 -0.0625zm1.1287689 -3.859375q0 -3.078125 1.71875 -4.546875q1.421875 -1.234375 3.46875 -1.234375q2.28125 0 3.71875 1.5q1.453125 1.484375 1.453125 4.125q0 2.140625 -0.640625 3.359375q-0.625 1.21875 -1.859375 1.90625q-1.21875 0.671875 -2.671875 0.671875q-2.3125 0 -3.75 -1.484375q-1.4375 -1.5 -1.4375 -4.296875zm1.9375 0q0 2.125 0.921875 3.1875q0.921875 1.046875 2.328125 1.046875q1.40625 0 2.328125 -1.0625q0.921875 -1.0625 0.921875 -3.234375q0 -2.046875 -0.9375 -3.109375q-0.921875 -1.0625 -2.3125 -1.0625q-1.40625 0 -2.328125 1.0625q-0.921875 1.046875 -0.921875 3.171875zm12.674194 5.53125l-3.390625 -11.0625l1.9375 0l1.765625 6.390625l0.65625 2.375q0.03125 -0.1875 0.5625 -2.28125l1.765625 -6.484375l1.921875 0l1.65625 6.421875l0.546875 2.109375l0.640625 -2.140625l1.890625 -6.390625l1.828125 0l-3.453125 11.0625l-1.953125 0l-1.75 -6.625l-0.4375 -1.890625l-2.234375 8.515625l-1.953125 0zm20.574371 -1.359375q-1.046875 0.875 -2.015625 1.25q-0.953125 0.359375 -2.0625 0.359375q-1.8125 0 -2.796875 -0.890625q-0.984375 -0.890625 -0.984375 -2.28125q0 -0.8125 0.375 -1.484375q0.375 -0.671875 0.96875 -1.078125q0.59375 -0.40625 1.34375 -0.609375q0.5625 -0.140625 1.671875 -0.28125q2.265625 -0.265625 3.34375 -0.640625q0.015625 -0.390625 0.015625 -0.5q0 -1.140625 -0.53125 -1.609375q-0.71875 -0.640625 -2.140625 -0.640625q-1.328125 0 -1.953125 0.46875q-0.625 0.46875 -0.9375 1.640625l-1.828125 -0.25q0.25 -1.171875 0.8125 -1.890625q0.578125 -0.734375 1.65625 -1.125q1.09375 -0.390625 2.515625 -0.390625q1.421875 0 2.296875 0.34375q0.890625 0.328125 1.3125 0.828125q0.421875 0.5 0.578125 1.28125q0.09375 0.46875 0.09375 1.71875l0 2.5q0 2.625 0.125 3.3125q0.125 0.6875 0.46875 1.328125l-1.953125 0q-0.296875 -0.578125 -0.375 -1.359375zm-0.15625 -4.1875q-1.015625 0.40625 -3.0625 0.703125q-1.15625 0.171875 -1.640625 0.375q-0.46875 0.203125 -0.734375 0.609375q-0.265625 0.40625 -0.265625 0.890625q0 0.75 0.5625 1.25q0.578125 0.5 1.671875 0.5q1.078125 0 1.921875 -0.46875q0.84375 -0.484375 1.25 -1.296875q0.296875 -0.640625 0.296875 -1.875l0 -0.6875zm4.7835693 5.546875l0 -11.0625l1.6875 0l0 1.671875q0.640625 -1.171875 1.1875 -1.546875q0.546875 -0.375 1.203125 -0.375q0.953125 0 1.921875 0.609375l-0.640625 1.734375q-0.6875 -0.40625 -1.375 -0.40625q-0.609375 0 -1.109375 0.375q-0.484375 0.359375 -0.6875 1.015625q-0.3125 1.0 -0.3125 2.1875l0 5.796875l-1.875 0zm14.289932 0l0 -1.390625q-1.046875 1.640625 -3.09375 1.640625q-1.3125 0 -2.421875 -0.71875q-1.109375 -0.734375 -1.71875 -2.046875q-0.609375 -1.3125 -0.609375 -3.0q0 -1.65625 0.546875 -3.0q0.546875 -1.359375 1.65625 -2.078125q1.109375 -0.71875 2.46875 -0.71875q1.0 0 1.78125 0.421875q0.78125 0.421875 1.265625 1.09375l0 -5.46875l1.875 0l0 15.265625l-1.75 0zm-5.921875 -5.515625q0 2.125 0.890625 3.171875q0.90625 1.046875 2.125 1.046875q1.21875 0 2.078125 -1.0q0.859375 -1.0 0.859375 -3.0625q0 -2.28125 -0.875 -3.34375q-0.875 -1.0625 -2.15625 -1.0625q-1.25 0 -2.09375 1.03125q-0.828125 1.015625 -0.828125 3.21875zm9.861694 2.21875l1.859375 -0.296875q0.15625 1.109375 0.859375 1.703125q0.71875 0.59375 2.0 0.59375q1.296875 0 1.921875 -0.515625q0.625 -0.53125 0.625 -1.234375q0 -0.640625 -0.5625 -1.0q-0.375 -0.25 -1.90625 -0.640625q-2.0625 -0.515625 -2.859375 -0.890625q-0.796875 -0.390625 -1.21875 -1.0625q-0.40625 -0.671875 -0.40625 -1.484375q0 -0.734375 0.328125 -1.359375q0.34375 -0.640625 0.9375 -1.0625q0.4375 -0.3125 1.1875 -0.53125q0.75 -0.234375 1.625 -0.234375q1.296875 0 2.28125 0.375q0.984375 0.375 1.453125 1.015625q0.46875 0.640625 0.640625 1.71875l-1.828125 0.25q-0.125 -0.859375 -0.734375 -1.328125q-0.59375 -0.484375 -1.6875 -0.484375q-1.28125 0 -1.84375 0.421875q-0.546875 0.421875 -0.546875 1.0q0 0.359375 0.234375 0.65625q0.21875 0.296875 0.71875 0.5q0.28125 0.109375 1.65625 0.484375q1.984375 0.53125 2.765625 0.875q0.796875 0.328125 1.234375 0.984375q0.453125 0.640625 0.453125 1.59375q0 0.9375 -0.546875 1.765625q-0.546875 0.828125 -1.578125 1.28125q-1.03125 0.453125 -2.328125 0.453125q-2.15625 0 -3.296875 -0.890625q-1.125 -0.90625 -1.4375 -2.65625zm21.433456 1.625l0.265625 1.65625q-0.78125 0.15625 -1.40625 0.15625q-1.03125 0 -1.59375 -0.3125q-0.5625 -0.328125 -0.796875 -0.84375q-0.21875 -0.53125 -0.21875 -2.21875l0 -6.375l-1.375 0l0 -1.453125l1.375 0l0 -2.734375l1.859375 -1.125l0 3.859375l1.890625 0l0 1.453125l-1.890625 0l0 6.46875q0 0.8125 0.09375 1.046875q0.109375 0.21875 0.328125 0.359375q0.234375 0.125 0.640625 0.125q0.3125 0 0.828125 -0.0625zm9.050644 0.3125q-1.046875 0.875 -2.015625 1.25q-0.953125 0.359375 -2.0625 0.359375q-1.8125 0 -2.796875 -0.890625q-0.984375 -0.890625 -0.984375 -2.28125q0 -0.8125 0.375 -1.484375q0.375 -0.671875 0.96875 -1.078125q0.59375 -0.40625 1.34375 -0.609375q0.5625 -0.140625 1.671875 -0.28125q2.265625 -0.265625 3.34375 -0.640625q0.015625 -0.390625 0.015625 -0.5q0 -1.140625 -0.53125 -1.609375q-0.71875 -0.640625 -2.140625 -0.640625q-1.328125 0 -1.953125 0.46875q-0.625 0.46875 -0.9375 1.640625l-1.828125 -0.25q0.25 -1.171875 0.8125 -1.890625q0.578125 -0.734375 1.65625 -1.125q1.09375 -0.390625 2.515625 -0.390625q1.421875 0 2.296875 0.34375q0.890625 0.328125 1.3125 0.828125q0.421875 0.5 0.578125 1.28125q0.09375 0.46875 0.09375 1.71875l0 2.5q0 2.625 0.125 3.3125q0.125 0.6875 0.46875 1.328125l-1.953125 0q-0.296875 -0.578125 -0.375 -1.359375zm-0.15625 -4.1875q-1.015625 0.40625 -3.0625 0.703125q-1.15625 0.171875 -1.640625 0.375q-0.46875 0.203125 -0.734375 0.609375q-0.265625 0.40625 -0.265625 0.890625q0 0.75 0.5625 1.25q0.578125 0.5 1.671875 0.5q1.078125 0 1.921875 -0.46875q0.84375 -0.484375 1.25 -1.296875q0.296875 -0.640625 0.296875 -1.875l0 -0.6875zm4.7835693 5.546875l0 -11.0625l1.6875 0l0 1.671875q0.640625 -1.171875 1.1875 -1.546875q0.546875 -0.375 1.203125 -0.375q0.953125 0 1.921875 0.609375l-0.640625 1.734375q-0.6875 -0.40625 -1.375 -0.40625q-0.609375 0 -1.109375 0.375q-0.484375 0.359375 -0.6875 1.015625q-0.3125 1.0 -0.3125 2.1875l0 5.796875l-1.875 0zm6.7743073 0.921875l1.828125 0.265625q0.109375 0.84375 0.625 1.234375q0.703125 0.515625 1.90625 0.515625q1.3125 0 2.015625 -0.53125q0.703125 -0.515625 0.953125 -1.453125q0.15625 -0.5625 0.140625 -2.40625q-1.234375 1.453125 -3.0625 1.453125q-2.28125 0 -3.53125 -1.640625q-1.25 -1.65625 -1.25 -3.953125q0 -1.578125 0.5625 -2.921875q0.578125 -1.34375 1.671875 -2.0625q1.09375 -0.734375 2.5625 -0.734375q1.953125 0 3.21875 1.578125l0 -1.328125l1.734375 0l0 9.5625q0 2.578125 -0.53125 3.65625q-0.515625 1.078125 -1.65625 1.703125q-1.140625 0.625 -2.8125 0.625q-1.984375 0 -3.203125 -0.890625q-1.21875 -0.890625 -1.171875 -2.671875zm1.546875 -6.65625q0 2.1875 0.859375 3.1875q0.875 1.0 2.171875 1.0q1.296875 0 2.171875 -1.0q0.875 -1.0 0.875 -3.125q0 -2.03125 -0.90625 -3.0625q-0.890625 -1.03125 -2.171875 -1.03125q-1.25 0 -2.125 1.015625q-0.875 1.015625 -0.875 3.015625zm18.236694 2.171875l1.921875 0.234375q-0.453125 1.703125 -1.6875 2.640625q-1.234375 0.9375 -3.171875 0.9375q-2.421875 0 -3.84375 -1.484375q-1.421875 -1.5 -1.421875 -4.203125q0 -2.796875 1.4375 -4.328125q1.4375 -1.546875 3.734375 -1.546875q2.21875 0 3.609375 1.515625q1.40625 1.5 1.40625 4.25q0 0.15625 0 0.5l-8.25 0q0.109375 1.8125 1.03125 2.78125q0.921875 0.96875 2.3125 0.96875q1.03125 0 1.75 -0.53125q0.734375 -0.546875 1.171875 -1.734375zm-6.15625 -3.03125l6.171875 0q-0.125 -1.390625 -0.703125 -2.09375q-0.90625 -1.078125 -2.328125 -1.078125q-1.296875 0 -2.171875 0.859375q-0.875 0.859375 -0.96875 2.3125zm14.533569 4.921875l0.265625 1.65625q-0.78125 0.15625 -1.40625 0.15625q-1.03125 0 -1.59375 -0.3125q-0.5625 -0.328125 -0.796875 -0.84375q-0.21875 -0.53125 -0.21875 -2.21875l0 -6.375l-1.375 0l0 -1.453125l1.375 0l0 -2.734375l1.859375 -1.125l0 3.859375l1.890625 0l0 1.453125l-1.890625 0l0 6.46875q0 0.8125 0.09375 1.046875q0.109375 0.21875 0.328125 0.359375q0.234375 0.125 0.640625 0.125q0.3125 0 0.828125 -0.0625z" fill-rule="nonzero"/><path fill="#eeeeee" d="m248.67455 75.47244l91.49605 0l0 -15.244095l30.48819 30.48819l-30.48819 30.48819l0 -15.244095l-91.49605 0z" fill-rule="evenodd"/><path stroke="#595959" stroke-width="1.0" stroke-linejoin="round" stroke-linecap="butt" d="m248.67455 75.47244l91.49605 0l0 -15.244095l30.48819 30.48819l-30.48819 30.48819l0 -15.244095l-91.49605 0z" fill-rule="evenodd"/><path fill="#eeeeee" d="m382.09973 56.83761c0 -9.355686 7.5842896 -16.939972 16.939972 -16.939972l168.13583 0c4.492737 0 8.801514 1.7847443 11.9783325 4.961605c3.17688 3.1768608 4.961609 7.485607 4.961609 11.978367l0 67.75785c0 9.355698 -7.5842896 16.939972 -16.939941 16.939972l-168.13583 0c-9.355682 0 -16.939972 -7.5842743 -16.939972 -16.939972z" fill-rule="evenodd"/><path stroke="#595959" stroke-width="1.0" stroke-linejoin="round" stroke-linecap="butt" d="m382.09973 56.83761c0 -9.355686 7.5842896 -16.939972 16.939972 -16.939972l168.13583 0c4.492737 0 8.801514 1.7847443 11.9783325 4.961605c3.17688 3.1768608 4.961609 7.485607 4.961609 11.978367l0 67.75785c0 9.355698 -7.5842896 16.939972 -16.939941 16.939972l-168.13583 0c-9.355682 0 -16.939972 -7.5842743 -16.939972 -16.939972z" fill-rule="evenodd"/><path fill="#000000" fill-opacity="0.0" d="m382.09973 55.17323l202.01575 0l0 71.08661l-202.01575 0z" fill-rule="evenodd"/><path fill="#595959" d="m415.8761 80.60635l1.84375 0.234375q-0.296875 1.90625 -1.546875 2.984375q-1.25 1.078125 -3.0625 1.078125q-2.265625 0 -3.65625 -1.484375q-1.375 -1.484375 -1.375 -4.25q0 -1.796875 0.59375 -3.140625q0.59375 -1.34375 1.8125 -2.015625q1.21875 -0.671875 2.640625 -0.671875q1.796875 0 2.9375 0.921875q1.15625 0.90625 1.484375 2.578125l-1.828125 0.28125q-0.265625 -1.109375 -0.921875 -1.671875q-0.65625 -0.5625 -1.59375 -0.5625q-1.421875 0 -2.3125 1.015625q-0.875 1.015625 -0.875 3.203125q0 2.234375 0.84375 3.25q0.859375 1.0 2.234375 1.0q1.109375 0 1.84375 -0.671875q0.734375 -0.671875 0.9375 -2.078125zm3.4453125 4.046875l0 -15.265625l1.875 0l0 5.46875q1.3125 -1.515625 3.3125 -1.515625q1.234375 0 2.140625 0.484375q0.90625 0.484375 1.296875 1.34375q0.390625 0.84375 0.390625 2.46875l0 7.015625l-1.875 0l0 -7.015625q0 -1.40625 -0.609375 -2.046875q-0.609375 -0.640625 -1.734375 -0.640625q-0.828125 0 -1.5625 0.4375q-0.734375 0.4375 -1.046875 1.171875q-0.3125 0.734375 -0.3125 2.046875l0 6.046875l-1.875 0zm19.43982 -3.5625l1.921875 0.234375q-0.453125 1.703125 -1.6875 2.640625q-1.234375 0.9375 -3.171875 0.9375q-2.421875 0 -3.84375 -1.484375q-1.421875 -1.5 -1.421875 -4.203125q0 -2.796875 1.4375 -4.328125q1.4375 -1.546875 3.734375 -1.546875q2.21875 0 3.609375 1.515625q1.40625 1.5 1.40625 4.25q0 0.15625 0 0.5l-8.25 0q0.109375 1.8125 1.03125 2.78125q0.921875 0.96875 2.3125 0.96875q1.03125 0 1.75 -0.53125q0.734375 -0.546875 1.171875 -1.734375zm-6.15625 -3.03125l6.171875 0q-0.125 -1.390625 -0.703125 -2.09375q-0.90625 -1.078125 -2.328125 -1.078125q-1.296875 0 -2.171875 0.859375q-0.875 0.859375 -0.96875 2.3125zm17.65857 2.546875l1.84375 0.234375q-0.296875 1.90625 -1.546875 2.984375q-1.25 1.078125 -3.0625 1.078125q-2.265625 0 -3.65625 -1.484375q-1.375 -1.484375 -1.375 -4.25q0 -1.796875 0.59375 -3.140625q0.59375 -1.34375 1.8125 -2.015625q1.21875 -0.671875 2.640625 -0.671875q1.796875 0 2.9375 0.921875q1.15625 0.90625 1.484375 2.578125l-1.828125 0.28125q-0.265625 -1.109375 -0.921875 -1.671875q-0.65625 -0.5625 -1.59375 -0.5625q-1.421875 0 -2.3125 1.015625q-0.875 1.015625 -0.875 3.203125q0 2.234375 0.84375 3.25q0.859375 1.0 2.234375 1.0q1.109375 0 1.84375 -0.671875q0.734375 -0.671875 0.9375 -2.078125zm3.4609375 4.046875l0 -15.265625l1.875 0l0 8.703125l4.4375 -4.5l2.421875 0l-4.234375 4.109375l4.65625 6.953125l-2.3125 0l-3.65625 -5.65625l-1.3125 1.265625l0 4.390625l-1.875 0zm16.589691 -13.109375l0 -2.15625l1.875 0l0 2.15625l-1.875 0zm0 13.109375l0 -11.0625l1.875 0l0 11.0625l-1.875 0zm5.175934 0l0 -9.609375l-1.65625 0l0 -1.453125l1.65625 0l0 -1.171875q0 -1.109375 0.1875 -1.65625q0.28125 -0.734375 0.953125 -1.1875q0.6875 -0.453125 1.921875 -0.453125q0.78125 0 1.75 0.1875l-0.28125 1.640625q-0.59375 -0.109375 -1.109375 -0.109375q-0.859375 0 -1.21875 0.375q-0.34375 0.359375 -0.34375 1.359375l0 1.015625l2.15625 0l0 1.453125l-2.15625 0l0 9.609375l-1.859375 0zm11.398163 0l0 -11.0625l1.671875 0l0 1.546875q0.53125 -0.8125 1.390625 -1.296875q0.859375 -0.5 1.96875 -0.5q1.234375 0 2.015625 0.515625q0.78125 0.5 1.109375 1.421875q1.3125 -1.9375 3.40625 -1.9375q1.65625 0 2.53125 0.921875q0.890625 0.90625 0.890625 2.796875l0 7.59375l-1.859375 0l0 -6.96875q0 -1.125 -0.1875 -1.609375q-0.1875 -0.5 -0.671875 -0.796875q-0.46875 -0.3125 -1.109375 -0.3125q-1.171875 0 -1.9375 0.78125q-0.765625 0.765625 -0.765625 2.484375l0 6.421875l-1.875 0l0 -7.1875q0 -1.25 -0.46875 -1.875q-0.453125 -0.625 -1.5 -0.625q-0.78125 0 -1.453125 0.421875q-0.671875 0.40625 -0.984375 1.21875q-0.296875 0.796875 -0.296875 2.3125l0 5.734375l-1.875 0zm17.063385 -5.53125q0 -3.078125 1.71875 -4.546875q1.421875 -1.234375 3.46875 -1.234375q2.28125 0 3.71875 1.5q1.453125 1.484375 1.453125 4.125q0 2.140625 -0.640625 3.359375q-0.625 1.21875 -1.859375 1.90625q-1.21875 0.671875 -2.671875 0.671875q-2.3125 0 -3.75 -1.484375q-1.4375 -1.5 -1.4375 -4.296875zm1.9375 0q0 2.125 0.921875 3.1875q0.921875 1.046875 2.328125 1.046875q1.40625 0 2.328125 -1.0625q0.921875 -1.0625 0.921875 -3.234375q0 -2.046875 -0.9375 -3.109375q-0.921875 -1.0625 -2.3125 -1.0625q-1.40625 0 -2.328125 1.0625q-0.921875 1.046875 -0.921875 3.171875zm13.705444 5.53125l-4.21875 -11.0625l1.984375 0l2.375 6.625q0.390625 1.078125 0.703125 2.234375q0.25 -0.875 0.703125 -2.109375l2.453125 -6.75l1.9375 0l-4.1875 11.0625l-1.75 0zm15.1640625 -3.5625l1.921875 0.234375q-0.453125 1.703125 -1.6875 2.640625q-1.234375 0.9375 -3.171875 0.9375q-2.421875 0 -3.84375 -1.484375q-1.421875 -1.5 -1.421875 -4.203125q0 -2.796875 1.4375 -4.328125q1.4375 -1.546875 3.734375 -1.546875q2.21875 0 3.609375 1.515625q1.40625 1.5 1.40625 4.25q0 0.15625 0 0.5l-8.25 0q0.109375 1.8125 1.03125 2.78125q0.921875 0.96875 2.3125 0.96875q1.03125 0 1.75 -0.53125q0.734375 -0.546875 1.171875 -1.734375zm-6.15625 -3.03125l6.171875 0q-0.125 -1.390625 -0.703125 -2.09375q-0.90625 -1.078125 -2.328125 -1.078125q-1.296875 0 -2.171875 0.859375q-0.875 0.859375 -0.96875 2.3125zm16.381104 -6.515625l0 -2.15625l1.875 0l0 2.15625l-1.875 0zm0 13.109375l0 -11.0625l1.875 0l0 11.0625l-1.875 0zm3.9727783 -3.296875l1.859375 -0.296875q0.15625 1.109375 0.859375 1.703125q0.71875 0.59375 2.0 0.59375q1.296875 0 1.921875 -0.515625q0.625 -0.53125 0.625 -1.234375q0 -0.640625 -0.5625 -1.0q-0.375 -0.25 -1.90625 -0.640625q-2.0625 -0.515625 -2.859375 -0.890625q-0.796875 -0.390625 -1.21875 -1.0625q-0.40625 -0.671875 -0.40625 -1.484375q0 -0.734375 0.328125 -1.359375q0.34375 -0.640625 0.9375 -1.0625q0.4375 -0.3125 1.1875 -0.53125q0.75 -0.234375 1.625 -0.234375q1.296875 0 2.28125 0.375q0.984375 0.375 1.453125 1.015625q0.46875 0.640625 0.640625 1.71875l-1.828125 0.25q-0.125 -0.859375 -0.734375 -1.328125q-0.59375 -0.484375 -1.6875 -0.484375q-1.28125 0 -1.84375 0.421875q-0.546875 0.421875 -0.546875 1.0q0 0.359375 0.234375 0.65625q0.21875 0.296875 0.71875 0.5q0.28125 0.109375 1.65625 0.484375q1.984375 0.53125 2.765625 0.875q0.796875 0.328125 1.234375 0.984375q0.453125 0.640625 0.453125 1.59375q0 0.9375 -0.546875 1.765625q-0.546875 0.828125 -1.578125 1.28125q-1.03125 0.453125 -2.328125 0.453125q-2.15625 0 -3.296875 -0.890625q-1.125 -0.90625 -1.4375 -2.65625z" fill-rule="nonzero"/><path fill="#595959" d="m465.65982 110.25323l-4.21875 -11.0625l1.984375 0l2.375 6.625q0.390625 1.078125 0.703125 2.234375q0.25 -0.875 0.703125 -2.109375l2.453125 -6.75l1.9375 0l-4.1875 11.0625l-1.75 0zm14.8046875 -1.359375q-1.046875 0.875 -2.015625 1.25q-0.953125 0.359375 -2.0625 0.359375q-1.8125 0 -2.796875 -0.890625q-0.984375 -0.890625 -0.984375 -2.28125q0 -0.8125 0.375 -1.484375q0.375 -0.671875 0.96875 -1.078125q0.59375 -0.40625 1.34375 -0.609375q0.5625 -0.140625 1.671875 -0.28125q2.265625 -0.265625 3.34375 -0.640625q0.015625 -0.390625 0.015625 -0.5q0 -1.140625 -0.53125 -1.609375q-0.71875 -0.640625 -2.140625 -0.640625q-1.328125 0 -1.953125 0.46875q-0.625 0.46875 -0.9375 1.640625l-1.828125 -0.25q0.25 -1.171875 0.8125 -1.890625q0.578125 -0.734375 1.65625 -1.125q1.09375 -0.390625 2.515625 -0.390625q1.421875 0 2.296875 0.34375q0.890625 0.328125 1.3125 0.828125q0.421875 0.5 0.578125 1.28125q0.09375 0.46875 0.09375 1.71875l0 2.5q0 2.625 0.125 3.3125q0.125 0.6875 0.46875 1.328125l-1.953125 0q-0.296875 -0.578125 -0.375 -1.359375zm-0.15625 -4.1875q-1.015625 0.40625 -3.0625 0.703125q-1.15625 0.171875 -1.640625 0.375q-0.46875 0.203125 -0.734375 0.609375q-0.265625 0.40625 -0.265625 0.890625q0 0.75 0.5625 1.25q0.578125 0.5 1.671875 0.5q1.078125 0 1.921875 -0.46875q0.84375 -0.484375 1.25 -1.296875q0.296875 -0.640625 0.296875 -1.875l0 -0.6875zm4.7523193 5.546875l0 -15.265625l1.875 0l0 15.265625l-1.875 0zm4.800934 -13.109375l0 -2.15625l1.875 0l0 2.15625l-1.875 0zm0 13.109375l0 -11.0625l1.875 0l0 11.0625l-1.875 0zm11.894684 0l0 -1.390625q-1.046875 1.640625 -3.09375 1.640625q-1.3125 0 -2.421875 -0.71875q-1.109375 -0.734375 -1.71875 -2.046875q-0.609375 -1.3125 -0.609375 -3.0q0 -1.65625 0.546875 -3.0q0.546875 -1.359375 1.65625 -2.078125q1.109375 -0.71875 2.46875 -0.71875q1.0 0 1.78125 0.421875q0.78125 0.421875 1.265625 1.09375l0 -5.46875l1.875 0l0 15.265625l-1.75 0zm-5.921875 -5.515625q0 2.125 0.890625 3.171875q0.90625 1.046875 2.125 1.046875q1.21875 0 2.078125 -1.0q0.859375 -1.0 0.859375 -3.0625q0 -2.28125 -0.875 -3.34375q-0.875 -1.0625 -2.15625 -1.0625q-1.25 0 -2.09375 1.03125q-0.828125 1.015625 -0.828125 3.21875z" fill-rule="nonzero"/><path fill="#eeeeee" d="m595.55646 75.47244l91.49603 0l0 -15.244095l30.48822 30.48819l-30.48822 30.48819l0 -15.244095l-91.49603 0z" fill-rule="evenodd"/><path stroke="#595959" stroke-width="1.0" stroke-linejoin="round" stroke-linecap="butt" d="m595.55646 75.47244l91.49603 0l0 -15.244095l30.48822 30.48819l-30.48822 30.48819l0 -15.244095l-91.49603 0z" fill-rule="evenodd"/><path fill="#000000" fill-opacity="0.0" d="m591.759 69.708664l121.98425 0l0 42.015747l-121.98425 0z" fill-rule="evenodd"/><path fill="#595959" d="m624.9535 85.15991l0 -1.890625l1.640625 0l0 1.890625l-1.640625 0zm0 11.46875l0 -9.671875l1.640625 0l0 9.671875l-1.640625 0zm4.5354614 0l0 -8.40625l-1.453125 0l0 -1.265625l1.453125 0l0 -1.03125q0 -0.96875 0.171875 -1.453125q0.234375 -0.640625 0.828125 -1.03125q0.59375 -0.390625 1.671875 -0.390625q0.6875 0 1.53125 0.15625l-0.25 1.4375q-0.5 -0.09375 -0.953125 -0.09375q-0.75 0 -1.0625 0.328125q-0.3125 0.3125 -0.3125 1.1875l0 0.890625l1.890625 0l0 1.265625l-1.890625 0l0 8.40625l-1.625 0zm12.663452 0l-3.6875 -9.671875l1.734375 0l2.078125 5.796875q0.328125 0.9375 0.625 1.9375q0.203125 -0.765625 0.609375 -1.828125l2.140625 -5.90625l1.6875 0l-3.65625 9.671875l-1.53125 0zm12.953125 -1.1875q-0.921875 0.765625 -1.765625 1.09375q-0.828125 0.3125 -1.796875 0.3125q-1.59375 0 -2.453125 -0.78125q-0.859375 -0.78125 -0.859375 -1.984375q0 -0.71875 0.328125 -1.296875q0.328125 -0.59375 0.84375 -0.9375q0.53125 -0.359375 1.1875 -0.546875q0.46875 -0.125 1.453125 -0.25q1.984375 -0.234375 2.921875 -0.5625q0.015625 -0.34375 0.015625 -0.421875q0 -1.0 -0.46875 -1.421875q-0.625 -0.546875 -1.875 -0.546875q-1.15625 0 -1.703125 0.40625q-0.546875 0.40625 -0.8125 1.421875l-1.609375 -0.21875q0.21875 -1.015625 0.71875 -1.640625q0.5 -0.640625 1.453125 -0.984375q0.953125 -0.34375 2.1875 -0.34375q1.25 0 2.015625 0.296875q0.78125 0.28125 1.140625 0.734375q0.375 0.4375 0.515625 1.109375q0.078125 0.421875 0.078125 1.515625l0 2.1875q0 2.28125 0.109375 2.890625q0.109375 0.59375 0.40625 1.15625l-1.703125 0q-0.265625 -0.515625 -0.328125 -1.1875zm-0.140625 -3.671875q-0.890625 0.375 -2.671875 0.625q-1.015625 0.140625 -1.4375 0.328125q-0.421875 0.1875 -0.65625 0.53125q-0.21875 0.34375 -0.21875 0.78125q0 0.65625 0.5 1.09375q0.5 0.4375 1.453125 0.4375q0.9375 0 1.671875 -0.40625q0.75 -0.421875 1.09375 -1.140625q0.265625 -0.5625 0.265625 -1.640625l0 -0.609375zm4.1569824 4.859375l0 -13.359375l1.640625 0l0 13.359375l-1.640625 0zm4.1917114 -11.46875l0 -1.890625l1.640625 0l0 1.890625l-1.640625 0zm0 11.46875l0 -9.671875l1.640625 0l0 9.671875l-1.640625 0zm10.410461 0l0 -1.21875q-0.90625 1.4375 -2.703125 1.4375q-1.15625 0 -2.125 -0.640625q-0.96875 -0.640625 -1.5 -1.78125q-0.53125 -1.140625 -0.53125 -2.625q0 -1.453125 0.484375 -2.625q0.484375 -1.1875 1.4375 -1.8125q0.96875 -0.625 2.171875 -0.625q0.875 0 1.546875 0.375q0.6875 0.359375 1.109375 0.953125l0 -4.796875l1.640625 0l0 13.359375l-1.53125 0zm-5.171875 -4.828125q0 1.859375 0.78125 2.78125q0.78125 0.921875 1.84375 0.921875q1.078125 0 1.828125 -0.875q0.75 -0.890625 0.75 -2.6875q0 -1.984375 -0.765625 -2.90625q-0.765625 -0.9375 -1.890625 -0.9375q-1.078125 0 -1.8125 0.890625q-0.734375 0.890625 -0.734375 2.8125zm9.735046 -2.984375l0 -1.859375l1.859375 0l0 1.859375l-1.859375 0zm0 7.8125l0 -1.875l1.859375 0l0 1.875l-1.859375 0z" fill-rule="nonzero"/><path fill="#eeeeee" d="m728.9816 56.83761c0 -9.355686 7.5842896 -16.939972 16.939941 -16.939972l168.13586 0c4.492737 0 8.801453 1.7847443 11.9783325 4.961605c3.17688 3.1768608 4.961609 7.485607 4.961609 11.978367l0 67.75785c0 9.355698 -7.5842896 16.939972 -16.939941 16.939972l-168.13586 0c-9.355652 0 -16.939941 -7.5842743 -16.939941 -16.939972z" fill-rule="evenodd"/><path stroke="#595959" stroke-width="1.0" stroke-linejoin="round" stroke-linecap="butt" d="m728.9816 56.83761c0 -9.355686 7.5842896 -16.939972 16.939941 -16.939972l168.13586 0c4.492737 0 8.801453 1.7847443 11.9783325 4.961605c3.17688 3.1768608 4.961609 7.485607 4.961609 11.978367l0 67.75785c0 9.355698 -7.5842896 16.939972 -16.939941 16.939972l-168.13586 0c-9.355652 0 -16.939941 -7.5842743 -16.939941 -16.939972z" fill-rule="evenodd"/><path fill="#000000" fill-opacity="0.0" d="m728.9816 68.08662l202.01575 0l0 45.259842l-202.01575 0z" fill-rule="evenodd"/><path fill="#595959" d="m803.52234 97.56661l0 -11.0625l1.6875 0l0 1.671875q0.640625 -1.171875 1.1875 -1.546875q0.546875 -0.375 1.203125 -0.375q0.953125 0 1.921875 0.609375l-0.640625 1.734375q-0.6875 -0.40625 -1.375 -0.40625q-0.609375 0 -1.109375 0.375q-0.484375 0.359375 -0.6875 1.015625q-0.3125 1.0 -0.3125 2.1875l0 5.796875l-1.875 0zm14.696167 -3.5625l1.921875 0.234375q-0.453125 1.703125 -1.6875 2.640625q-1.234375 0.9375 -3.171875 0.9375q-2.421875 0 -3.84375 -1.484375q-1.421875 -1.5 -1.421875 -4.203125q0 -2.796875 1.4375 -4.328125q1.4375 -1.546875 3.734375 -1.546875q2.21875 0 3.609375 1.515625q1.40625 1.5 1.40625 4.25q0 0.15625 0 0.5l-8.25 0q0.109375 1.8125 1.03125 2.78125q0.921875 0.96875 2.3125 0.96875q1.03125 0 1.75 -0.53125q0.734375 -0.546875 1.171875 -1.734375zm-6.15625 -3.03125l6.171875 0q-0.125 -1.390625 -0.703125 -2.09375q-0.90625 -1.078125 -2.328125 -1.078125q-1.296875 0 -2.171875 0.859375q-0.875 0.859375 -0.96875 2.3125zm14.533569 4.921875l0.265625 1.65625q-0.78125 0.15625 -1.40625 0.15625q-1.03125 0 -1.59375 -0.3125q-0.5625 -0.328125 -0.796875 -0.84375q-0.21875 -0.53125 -0.21875 -2.21875l0 -6.375l-1.375 0l0 -1.453125l1.375 0l0 -2.734375l1.859375 -1.125l0 3.859375l1.890625 0l0 1.453125l-1.890625 0l0 6.46875q0 0.8125 0.09375 1.046875q0.109375 0.21875 0.328125 0.359375q0.234375 0.125 0.640625 0.125q0.3125 0 0.828125 -0.0625zm9.081909 1.671875l0 -1.625q-1.296875 1.875 -3.515625 1.875q-0.96875 0 -1.828125 -0.375q-0.84375 -0.375 -1.265625 -0.9375q-0.40625 -0.578125 -0.5625 -1.390625q-0.125 -0.5625 -0.125 -1.75l0 -6.859375l1.875 0l0 6.140625q0 1.46875 0.125 1.96875q0.171875 0.75 0.734375 1.171875q0.578125 0.421875 1.421875 0.421875q0.84375 0 1.578125 -0.4375q0.75 -0.4375 1.046875 -1.171875q0.3125 -0.75 0.3125 -2.171875l0 -5.921875l1.875 0l0 11.0625l-1.671875 0zm4.5960693 0l0 -11.0625l1.6875 0l0 1.671875q0.640625 -1.171875 1.1875 -1.546875q0.546875 -0.375 1.203125 -0.375q0.953125 0 1.921875 0.609375l-0.640625 1.734375q-0.6875 -0.40625 -1.375 -0.40625q-0.609375 0 -1.109375 0.375q-0.484375 0.359375 -0.6875 1.015625q-0.3125 1.0 -0.3125 2.1875l0 5.796875l-1.875 0zm7.118042 0l0 -11.0625l1.6875 0l0 1.578125q1.21875 -1.828125 3.515625 -1.828125q1.0 0 1.84375 0.359375q0.84375 0.359375 1.25 0.953125q0.421875 0.578125 0.59375 1.375q0.09375 0.515625 0.09375 1.828125l0 6.796875l-1.875 0l0 -6.734375q0 -1.140625 -0.21875 -1.703125q-0.21875 -0.578125 -0.78125 -0.90625q-0.546875 -0.34375 -1.296875 -0.34375q-1.203125 0 -2.078125 0.765625q-0.859375 0.75 -0.859375 2.875l0 6.046875l-1.875 0z" fill-rule="nonzero"/><path fill="#eeeeee" d="m541.9767 158.45416l64.70868 64.70865l10.779541 -10.779526l0 43.11812l-43.118103 0l10.77948 -10.779526l-64.70862 -64.708664z" fill-rule="evenodd"/><path stroke="#595959" stroke-width="1.0" stroke-linejoin="round" stroke-linecap="butt" d="m541.9767 158.45416l64.70868 64.70865l10.779541 -10.779526l0 43.11812l-43.118103 0l10.77948 -10.779526l-64.70862 -64.708664z" fill-rule="evenodd"/><path fill="#000000" fill-opacity="0.0" d="m543.36743 151.69301l86.2677 86.267715l-29.700806 29.700775l-86.2677 -86.2677z" fill-rule="evenodd"/><path fill="#595959" d="m550.78595 180.9629l1.336853 -1.3368835l1.1600952 1.1600952l-1.336853 1.3368835l-1.1600952 -1.1600952zm-8.109619 8.109619l6.8390503 -6.8390503l1.1600952 1.1601105l-6.8390503 6.839035l-1.1600952 -1.1600952zm3.2070312 3.2070465l5.944092 -5.944107l-1.0275269 -1.0275269l0.8949585 -0.894928l1.0275269 1.0275116l0.729187 -0.7292023q0.68499756 -0.6850128 1.1490479 -0.90597534q0.6187134 -0.28726196 1.3147583 -0.14363098q0.69610596 0.14363098 1.458435 0.90597534q0.48614502 0.48614502 0.97229004 1.1932526l-1.1932373 0.8396759q-0.28729248 -0.41984558 -0.60772705 -0.74024963q-0.53027344 -0.5303192 -0.98327637 -0.51927185q-0.44195557 0 -1.060669 0.6187134l-0.62976074 0.62976074l1.336853 1.3368835l-0.89489746 0.894928l-1.3369141 -1.3368683l-5.944092 5.944107l-1.1490479 -1.1490479zm15.163696 -1.055542l1.336853 -1.3368683l1.1601562 1.1600952l-1.3369141 1.3368683l-1.1600952 -1.1600952zm-8.109619 8.109634l6.8390503 -6.8390503l1.1600952 1.1600952l-6.8390503 6.8390503l-1.1600952 -1.1600952zm2.9308472 2.930832l6.8390503 -6.8390503l1.0385132 1.038559l-0.972229 0.9722748q1.8782349 -0.37565613 3.3035278 1.0496063q0.6187134 0.61872864 0.9169922 1.3589783q0.29833984 0.74024963 0.18780518 1.358963q-0.088378906 0.61872864 -0.48608398 1.2153473q-0.2541504 0.38668823 -1.060669 1.1932373l-4.2095337 4.209503l-1.1600952 -1.1601105l4.165344 -4.1652985q0.7070923 -0.70710754 0.9059448 -1.1932373q0.2210083 -0.48612976 0.088378906 -1.038559q-0.13256836 -0.5524292 -0.59661865 -1.0164642q-0.7402344 -0.7402649 -1.7567139 -0.8065491q-0.99432373 -0.06629944 -2.309143 1.2484894l-3.734375 3.7344055l-1.1600952 -1.1600952zm9.237061 9.237091l4.2316284 -9.446518l1.2263794 1.2263947l-2.6295776 5.568466q-0.4309082 0.894928 -0.9281006 1.811966q0.6850586 -0.39775085 1.7236328 -0.8617859l5.6899414 -2.6627045l1.1932983 1.1932373l-9.424438 4.2536926l-1.0827637 -1.0827484zm9.998962 8.31955q-1.1932373 -0.11048889 -2.0219116 -0.47509766q-0.80651855 -0.3645935 -1.4915161 -1.0496063q-1.1269531 -1.1269531 -1.182251 -2.2870483q-0.055236816 -1.1600952 0.7955322 -2.0108337q0.50823975 -0.50823975 1.1490479 -0.6850128q0.65185547 -0.18782043 1.2595215 -0.06628418q0.62976074 0.121536255 1.2263794 0.45298767q0.41986084 0.24307251 1.2042847 0.8507385q1.5689087 1.237442 2.4638672 1.668335q0.25408936 -0.23202515 0.30932617 -0.28726196q0.7070923 -0.70710754 0.6739502 -1.3368835q-0.055236816 -0.8286438 -0.9390869 -1.7125244q-0.81762695 -0.81759644 -1.4915771 -0.9170227q-0.6739502 -0.09944153 -1.579956 0.43089294l-0.98327637 -1.2926788q0.87280273 -0.56347656 1.668335 -0.6518707q0.80651855 -0.09944153 1.7235718 0.33146667q0.9169922 0.43089294 1.789856 1.3037262q0.8838501 0.8838806 1.215332 1.6351776q0.35351562 0.751297 0.28723145 1.3258209q-0.044189453 0.5745239 -0.4197998 1.1490479q-0.24310303 0.3535614 -1.0164795 1.1269531l-1.546814 1.5467987q-1.6130981 1.6130829 -1.9666138 2.1213226q-0.3425293 0.49717712 -0.5303345 1.1048584l-1.2042847 -1.2042999q0.17675781 -0.5524292 0.607666 -1.071701zm2.4969482 -2.6958466q-0.8949585 -0.36460876 -2.3312378 -1.4473572q-0.8175659 -0.61872864 -1.2484741 -0.78445435q-0.4309082 -0.16572571 -0.8397217 -0.088378906q-0.39770508 0.088378906 -0.7070923 0.3977356q-0.4640503 0.4640503 -0.41986084 1.1269531q0.044189453 0.6629181 0.7182007 1.3368835q0.66290283 0.66290283 1.4694214 0.894928q0.8286743 0.23202515 1.579956 -0.03314209q0.5855713 -0.20993042 1.3479004 -0.9722748l0.4309082 -0.43089294zm-0.4967041 6.375519l9.446533 -9.446503l1.1600952 1.1600952l-9.446533 9.446503l-1.1600952 -1.1600952zm11.073608 -5.1456604l1.3369141 -1.3368683l1.1600952 1.1600952l-1.3369141 1.3368683l-1.1600952 -1.1600952zm-8.109619 8.109634l6.8390503 -6.8390503l1.1600952 1.1600952l-6.8390503 6.8390503l-1.1600952 -1.1600952zm7.361328 7.3612976l0.8617554 -0.8617859q-1.6572876 0.37565613 -2.9278564 -0.894928q-0.8175659 -0.81759644 -1.0496216 -1.9555969q-0.23199463 -1.1380005 0.19891357 -2.3201904q0.43084717 -1.1822052 1.4804688 -2.2318115q1.0275269 -1.0275116 2.1986694 -1.5136566q1.18219 -0.49717712 2.2980957 -0.26515198q1.1269531 0.24305725 1.9777222 1.0937958q0.6187134 0.61872864 0.8286133 1.3589783q0.23199463 0.74024963 0.11047363 1.4584045l3.3919067 -3.3919067l1.1600952 1.1600952l-9.446472 9.446518l-1.0827637 -1.0827637zm-0.24310303 -7.0710754q-1.3147583 1.3147888 -1.4141846 2.5190735q-0.09942627 1.2042847 0.65185547 1.9555969q0.7623291 0.76234436 1.911377 0.6739502q1.1600952 -0.09942627 2.430725 -1.3700104q1.4031372 -1.4031677 1.5136108 -2.596405q0.121520996 -1.2042999 -0.6739502 -1.9997864q-0.7623291 -0.7623596 -1.911377 -0.6518707q-1.1490479 0.11048889 -2.5080566 1.4694519zm8.994019 4.7734833l1.3148193 -1.3147736l1.3147583 1.3147736l-1.3147583 1.3147736l-1.3148193 -1.3147736zm-5.524231 5.5242767l1.3258057 -1.3258362l1.3147583 1.3147888l-1.3258057 1.3258209l-1.3147583 -1.3147736z" fill-rule="nonzero"/><path fill="#eeeeee" d="m527.61945 300.13943c0 -9.355682 7.5842896 -16.939972 16.939941 -16.939972l168.1358 0c4.492798 0 8.801514 1.7847595 11.978394 4.961609c3.1768188 3.17688 4.961609 7.485626 4.961609 11.978363l0 67.75787c0 9.355682 -7.5842896 16.939972 -16.940002 16.939972l-168.1358 0c-9.355652 0 -16.939941 -7.5842896 -16.939941 -16.939972z" fill-rule="evenodd"/><path stroke="#595959" stroke-width="1.0" stroke-linejoin="round" stroke-linecap="butt" d="m527.61945 300.13943c0 -9.355682 7.5842896 -16.939972 16.939941 -16.939972l168.1358 0c4.492798 0 8.801514 1.7847595 11.978394 4.961609c3.1768188 3.17688 4.961609 7.485626 4.961609 11.978363l0 67.75787c0 9.355682 -7.5842896 16.939972 -16.940002 16.939972l-168.1358 0c-9.355652 0 -16.939941 -7.5842896 -16.939941 -16.939972z" fill-rule="evenodd"/><path fill="#000000" fill-opacity="0.0" d="m527.61945 283.19946l202.01575 0l0 96.944885l-202.01575 0z" fill-rule="evenodd"/><path fill="#595959" d="m573.825 308.6326l1.84375 0.234375q-0.296875 1.90625 -1.546875 2.984375q-1.25 1.078125 -3.0625 1.078125q-2.265625 0 -3.65625 -1.484375q-1.375 -1.484375 -1.375 -4.25q0 -1.796875 0.59375 -3.140625q0.59375 -1.34375 1.8125 -2.015625q1.21875 -0.671875 2.640625 -0.671875q1.796875 0 2.9375 0.921875q1.15625 0.90625 1.484375 2.578125l-1.828125 0.28125q-0.265625 -1.109375 -0.921875 -1.671875q-0.65625 -0.5625 -1.59375 -0.5625q-1.421875 0 -2.3125 1.015625q-0.875 1.015625 -0.875 3.203125q0 2.234375 0.84375 3.25q0.859375 1.0 2.234375 1.0q1.109375 0 1.84375 -0.671875q0.734375 -0.671875 0.9375 -2.078125zm2.7421875 -1.484375q0 -3.078125 1.71875 -4.546875q1.421875 -1.234375 3.46875 -1.234375q2.28125 0 3.71875 1.5q1.453125 1.484375 1.453125 4.125q0 2.140625 -0.640625 3.359375q-0.625 1.21875 -1.859375 1.90625q-1.21875 0.671875 -2.671875 0.671875q-2.3125 0 -3.75 -1.484375q-1.4375 -1.5 -1.4375 -4.296875zm1.9375 0q0 2.125 0.921875 3.1875q0.921875 1.046875 2.328125 1.046875q1.40625 0 2.328125 -1.0625q0.921875 -1.0625 0.921875 -3.234375q0 -2.046875 -0.9375 -3.109375q-0.921875 -1.0625 -2.3125 -1.0625q-1.40625 0 -2.328125 1.0625q-0.921875 1.046875 -0.921875 3.171875zm10.627319 5.53125l0 -11.0625l1.671875 0l0 1.546875q0.53125 -0.8125 1.390625 -1.296875q0.859375 -0.5 1.96875 -0.5q1.234375 0 2.015625 0.515625q0.78125 0.5 1.109375 1.421875q1.3125 -1.9375 3.40625 -1.9375q1.65625 0 2.53125 0.921875q0.890625 0.90625 0.890625 2.796875l0 7.59375l-1.859375 0l0 -6.96875q0 -1.125 -0.1875 -1.609375q-0.1875 -0.5 -0.671875 -0.796875q-0.46875 -0.3125 -1.109375 -0.3125q-1.171875 0 -1.9375 0.78125q-0.765625 0.765625 -0.765625 2.484375l0 6.421875l-1.875 0l0 -7.1875q0 -1.25 -0.46875 -1.875q-0.453125 -0.625 -1.5 -0.625q-0.78125 0 -1.453125 0.421875q-0.671875 0.40625 -0.984375 1.21875q-0.296875 0.796875 -0.296875 2.3125l0 5.734375l-1.875 0zm17.76654 4.234375l0 -15.296875l1.703125 0l0 1.4375q0.609375 -0.84375 1.359375 -1.265625q0.765625 -0.421875 1.859375 -0.421875q1.40625 0 2.484375 0.734375q1.09375 0.71875 1.640625 2.046875q0.546875 1.328125 0.546875 2.921875q0 1.6875 -0.609375 3.046875q-0.59375 1.359375 -1.765625 2.09375q-1.15625 0.71875 -2.4375 0.71875q-0.9375 0 -1.6875 -0.390625q-0.734375 -0.40625 -1.21875 -1.0l0 5.375l-1.875 0zm1.703125 -9.703125q0 2.140625 0.859375 3.15625q0.859375 1.015625 2.09375 1.015625q1.25 0 2.140625 -1.046875q0.890625 -1.0625 0.890625 -3.28125q0 -2.109375 -0.875 -3.15625q-0.859375 -1.0625 -2.078125 -1.0625q-1.1875 0 -2.109375 1.125q-0.921875 1.109375 -0.921875 3.25zm17.40857 5.46875l0 -1.625q-1.296875 1.875 -3.515625 1.875q-0.96875 0 -1.828125 -0.375q-0.84375 -0.375 -1.265625 -0.9375q-0.40625 -0.578125 -0.5625 -1.390625q-0.125 -0.5625 -0.125 -1.75l0 -6.859375l1.875 0l0 6.140625q0 1.46875 0.125 1.96875q0.171875 0.75 0.734375 1.171875q0.578125 0.421875 1.421875 0.421875q0.84375 0 1.578125 -0.4375q0.75 -0.4375 1.046875 -1.171875q0.3125 -0.75 0.3125 -2.171875l0 -5.921875l1.875 0l0 11.0625l-1.671875 0zm8.705444 -1.671875l0.265625 1.65625q-0.78125 0.15625 -1.40625 0.15625q-1.03125 0 -1.59375 -0.3125q-0.5625 -0.328125 -0.796875 -0.84375q-0.21875 -0.53125 -0.21875 -2.21875l0 -6.375l-1.375 0l0 -1.453125l1.375 0l0 -2.734375l1.859375 -1.125l0 3.859375l1.890625 0l0 1.453125l-1.890625 0l0 6.46875q0 0.8125 0.09375 1.046875q0.109375 0.21875 0.328125 0.359375q0.234375 0.125 0.640625 0.125q0.3125 0 0.828125 -0.0625zm9.409973 -1.890625l1.921875 0.234375q-0.453125 1.703125 -1.6875 2.640625q-1.234375 0.9375 -3.171875 0.9375q-2.421875 0 -3.84375 -1.484375q-1.421875 -1.5 -1.421875 -4.203125q0 -2.796875 1.4375 -4.328125q1.4375 -1.546875 3.734375 -1.546875q2.21875 0 3.609375 1.515625q1.40625 1.5 1.40625 4.25q0 0.15625 0 0.5l-8.25 0q0.109375 1.8125 1.03125 2.78125q0.921875 0.96875 2.3125 0.96875q1.03125 0 1.75 -0.53125q0.734375 -0.546875 1.171875 -1.734375zm-6.15625 -3.03125l6.171875 0q-0.125 -1.390625 -0.703125 -2.09375q-0.90625 -1.078125 -2.328125 -1.078125q-1.296875 0 -2.171875 0.859375q-0.875 0.859375 -0.96875 2.3125zm16.365479 6.59375l0 -11.0625l1.6875 0l0 1.578125q1.21875 -1.828125 3.515625 -1.828125q1.0 0 1.84375 0.359375q0.84375 0.359375 1.25 0.953125q0.421875 0.578125 0.59375 1.375q0.09375 0.515625 0.09375 1.828125l0 6.796875l-1.875 0l0 -6.734375q0 -1.140625 -0.21875 -1.703125q-0.21875 -0.578125 -0.78125 -0.90625q-0.546875 -0.34375 -1.296875 -0.34375q-1.203125 0 -2.078125 0.765625q-0.859375 0.75 -0.859375 2.875l0 6.046875l-1.875 0zm19.43982 -3.5625l1.921875 0.234375q-0.453125 1.703125 -1.6875 2.640625q-1.234375 0.9375 -3.171875 0.9375q-2.421875 0 -3.84375 -1.484375q-1.421875 -1.5 -1.421875 -4.203125q0 -2.796875 1.4375 -4.328125q1.4375 -1.546875 3.734375 -1.546875q2.21875 0 3.609375 1.515625q1.40625 1.5 1.40625 4.25q0 0.15625 0 0.5l-8.25 0q0.109375 1.8125 1.03125 2.78125q0.921875 0.96875 2.3125 0.96875q1.03125 0 1.75 -0.53125q0.734375 -0.546875 1.171875 -1.734375zm-6.15625 -3.03125l6.171875 0q-0.125 -1.390625 -0.703125 -2.09375q-0.90625 -1.078125 -2.328125 -1.078125q-1.296875 0 -2.171875 0.859375q-0.875 0.859375 -0.96875 2.3125zm12.486694 6.59375l-3.390625 -11.0625l1.9375 0l1.765625 6.390625l0.65625 2.375q0.03125 -0.1875 0.5625 -2.28125l1.765625 -6.484375l1.921875 0l1.65625 6.421875l0.546875 2.109375l0.640625 -2.140625l1.890625 -6.390625l1.828125 0l-3.453125 11.0625l-1.953125 0l-1.75 -6.625l-0.4375 -1.890625l-2.234375 8.515625l-1.953125 0z" fill-rule="nonzero"/><path fill="#595959" d="m563.64343 338.27948l0 -15.265625l1.875 0l0 5.46875q1.3125 -1.515625 3.3125 -1.515625q1.234375 0 2.140625 0.484375q0.90625 0.484375 1.296875 1.34375q0.390625 0.84375 0.390625 2.46875l0 7.015625l-1.875 0l0 -7.015625q0 -1.40625 -0.609375 -2.046875q-0.609375 -0.640625 -1.734375 -0.640625q-0.828125 0 -1.5625 0.4375q-0.734375 0.4375 -1.046875 1.171875q-0.3125 0.734375 -0.3125 2.046875l0 6.046875l-1.875 0zm19.43982 -3.5625l1.921875 0.234375q-0.453125 1.703125 -1.6875 2.640625q-1.234375 0.9375 -3.171875 0.9375q-2.421875 0 -3.84375 -1.484375q-1.421875 -1.5 -1.421875 -4.203125q0 -2.796875 1.4375 -4.328125q1.4375 -1.546875 3.734375 -1.546875q2.21875 0 3.609375 1.515625q1.40625 1.5 1.40625 4.25q0 0.15625 0 0.5l-8.25 0q0.109375 1.8125 1.03125 2.78125q0.921875 0.96875 2.3125 0.96875q1.03125 0 1.75 -0.53125q0.734375 -0.546875 1.171875 -1.734375zm-6.15625 -3.03125l6.171875 0q-0.125 -1.390625 -0.703125 -2.09375q-0.90625 -1.078125 -2.328125 -1.078125q-1.296875 0 -2.171875 0.859375q-0.875 0.859375 -0.96875 2.3125zm17.65857 5.234375q-1.046875 0.875 -2.015625 1.25q-0.953125 0.359375 -2.0625 0.359375q-1.8125 0 -2.796875 -0.890625q-0.984375 -0.890625 -0.984375 -2.28125q0 -0.8125 0.375 -1.484375q0.375 -0.671875 0.96875 -1.078125q0.59375 -0.40625 1.34375 -0.609375q0.5625 -0.140625 1.671875 -0.28125q2.265625 -0.265625 3.34375 -0.640625q0.015625 -0.390625 0.015625 -0.5q0 -1.140625 -0.53125 -1.609375q-0.71875 -0.640625 -2.140625 -0.640625q-1.328125 0 -1.953125 0.46875q-0.625 0.46875 -0.9375 1.640625l-1.828125 -0.25q0.25 -1.171875 0.8125 -1.890625q0.578125 -0.734375 1.65625 -1.125q1.09375 -0.390625 2.515625 -0.390625q1.421875 0 2.296875 0.34375q0.890625 0.328125 1.3125 0.828125q0.421875 0.5 0.578125 1.28125q0.09375 0.46875 0.09375 1.71875l0 2.5q0 2.625 0.125 3.3125q0.125 0.6875 0.46875 1.328125l-1.953125 0q-0.296875 -0.578125 -0.375 -1.359375zm-0.15625 -4.1875q-1.015625 0.40625 -3.0625 0.703125q-1.15625 0.171875 -1.640625 0.375q-0.46875 0.203125 -0.734375 0.609375q-0.265625 0.40625 -0.265625 0.890625q0 0.75 0.5625 1.25q0.578125 0.5 1.671875 0.5q1.078125 0 1.921875 -0.46875q0.84375 -0.484375 1.25 -1.296875q0.296875 -0.640625 0.296875 -1.875l0 -0.6875zm11.971069 5.546875l0 -1.390625q-1.046875 1.640625 -3.09375 1.640625q-1.3125 0 -2.421875 -0.71875q-1.109375 -0.734375 -1.71875 -2.046875q-0.609375 -1.3125 -0.609375 -3.0q0 -1.65625 0.546875 -3.0q0.546875 -1.359375 1.65625 -2.078125q1.109375 -0.71875 2.46875 -0.71875q1.0 0 1.78125 0.421875q0.78125 0.421875 1.265625 1.09375l0 -5.46875l1.875 0l0 15.265625l-1.75 0zm-5.921875 -5.515625q0 2.125 0.890625 3.171875q0.90625 1.046875 2.125 1.046875q1.21875 0 2.078125 -1.0q0.859375 -1.0 0.859375 -3.0625q0 -2.28125 -0.875 -3.34375q-0.875 -1.0625 -2.15625 -1.0625q-1.25 0 -2.09375 1.03125q-0.828125 1.015625 -0.828125 3.21875zm10.627319 -7.59375l0 -2.15625l1.875 0l0 2.15625l-1.875 0zm0 13.109375l0 -11.0625l1.875 0l0 11.0625l-1.875 0zm4.7228394 0l0 -11.0625l1.6875 0l0 1.578125q1.21875 -1.828125 3.515625 -1.828125q1.0 0 1.84375 0.359375q0.84375 0.359375 1.25 0.953125q0.421875 0.578125 0.59375 1.375q0.09375 0.515625 0.09375 1.828125l0 6.796875l-1.875 0l0 -6.734375q0 -1.140625 -0.21875 -1.703125q-0.21875 -0.578125 -0.78125 -0.90625q-0.546875 -0.34375 -1.296875 -0.34375q-1.203125 0 -2.078125 0.765625q-0.859375 0.75 -0.859375 2.875l0 6.046875l-1.875 0zm11.517944 0.921875l1.828125 0.265625q0.109375 0.84375 0.625 1.234375q0.703125 0.515625 1.90625 0.515625q1.3125 0 2.015625 -0.53125q0.703125 -0.515625 0.953125 -1.453125q0.15625 -0.5625 0.140625 -2.40625q-1.234375 1.453125 -3.0625 1.453125q-2.28125 0 -3.53125 -1.640625q-1.25 -1.65625 -1.25 -3.953125q0 -1.578125 0.5625 -2.921875q0.578125 -1.34375 1.671875 -2.0625q1.09375 -0.734375 2.5625 -0.734375q1.953125 0 3.21875 1.578125l0 -1.328125l1.734375 0l0 9.5625q0 2.578125 -0.53125 3.65625q-0.515625 1.078125 -1.65625 1.703125q-1.140625 0.625 -2.8125 0.625q-1.984375 0 -3.203125 -0.890625q-1.21875 -0.890625 -1.171875 -2.671875zm1.546875 -6.65625q0 2.1875 0.859375 3.1875q0.875 1.0 2.171875 1.0q1.296875 0 2.171875 -1.0q0.875 -1.0 0.875 -3.125q0 -2.03125 -0.90625 -3.0625q-0.890625 -1.03125 -2.171875 -1.03125q-1.25 0 -2.125 1.015625q-0.875 1.015625 -0.875 3.015625zm9.908569 2.4375l1.859375 -0.296875q0.15625 1.109375 0.859375 1.703125q0.71875 0.59375 2.0 0.59375q1.296875 0 1.921875 -0.515625q0.625 -0.53125 0.625 -1.234375q0 -0.640625 -0.5625 -1.0q-0.375 -0.25 -1.90625 -0.640625q-2.0625 -0.515625 -2.859375 -0.890625q-0.796875 -0.390625 -1.21875 -1.0625q-0.40625 -0.671875 -0.40625 -1.484375q0 -0.734375 0.328125 -1.359375q0.34375 -0.640625 0.9375 -1.0625q0.4375 -0.3125 1.1875 -0.53125q0.75 -0.234375 1.625 -0.234375q1.296875 0 2.28125 0.375q0.984375 0.375 1.453125 1.015625q0.46875 0.640625 0.640625 1.71875l-1.828125 0.25q-0.125 -0.859375 -0.734375 -1.328125q-0.59375 -0.484375 -1.6875 -0.484375q-1.28125 0 -1.84375 0.421875q-0.546875 0.421875 -0.546875 1.0q0 0.359375 0.234375 0.65625q0.21875 0.296875 0.71875 0.5q0.28125 0.109375 1.65625 0.484375q1.984375 0.53125 2.765625 0.875q0.796875 0.328125 1.234375 0.984375q0.453125 0.640625 0.453125 1.59375q0 0.9375 -0.546875 1.765625q-0.546875 0.828125 -1.578125 1.28125q-1.03125 0.453125 -2.328125 0.453125q-2.15625 0 -3.296875 -0.890625q-1.125 -0.90625 -1.4375 -2.65625zm11.9296875 -5.625l0 -2.140625l2.140625 0l0 2.140625l-2.140625 0zm0 8.921875l0 -2.140625l2.140625 0l0 2.140625l-2.140625 0zm11.788818 0l0 -9.609375l-1.65625 0l0 -1.453125l1.65625 0l0 -1.171875q0 -1.109375 0.1875 -1.65625q0.28125 -0.734375 0.953125 -1.1875q0.6875 -0.453125 1.921875 -0.453125q0.78125 0 1.75 0.1875l-0.28125 1.640625q-0.59375 -0.109375 -1.109375 -0.109375q-0.859375 0 -1.21875 0.375q-0.34375 0.359375 -0.34375 1.359375l0 1.015625l2.15625 0l0 1.453125l-2.15625 0l0 9.609375l-1.859375 0zm5.488098 -13.109375l0 -2.15625l1.875 0l0 2.15625l-1.875 0zm0 13.109375l0 -11.0625l1.875 0l0 11.0625l-1.875 0zm4.7072144 0l0 -11.0625l1.6875 0l0 1.671875q0.640625 -1.171875 1.1875 -1.546875q0.546875 -0.375 1.203125 -0.375q0.953125 0 1.921875 0.609375l-0.640625 1.734375q-0.6875 -0.40625 -1.375 -0.40625q-0.609375 0 -1.109375 0.375q-0.484375 0.359375 -0.6875 1.015625q-0.3125 1.0 -0.3125 2.1875l0 5.796875l-1.875 0zm6.368042 -3.296875l1.859375 -0.296875q0.15625 1.109375 0.859375 1.703125q0.71875 0.59375 2.0 0.59375q1.296875 0 1.921875 -0.515625q0.625 -0.53125 0.625 -1.234375q0 -0.640625 -0.5625 -1.0q-0.375 -0.25 -1.90625 -0.640625q-2.0625 -0.515625 -2.859375 -0.890625q-0.796875 -0.390625 -1.21875 -1.0625q-0.40625 -0.671875 -0.40625 -1.484375q0 -0.734375 0.328125 -1.359375q0.34375 -0.640625 0.9375 -1.0625q0.4375 -0.3125 1.1875 -0.53125q0.75 -0.234375 1.625 -0.234375q1.296875 0 2.28125 0.375q0.984375 0.375 1.453125 1.015625q0.46875 0.640625 0.640625 1.71875l-1.828125 0.25q-0.125 -0.859375 -0.734375 -1.328125q-0.59375 -0.484375 -1.6875 -0.484375q-1.28125 0 -1.84375 0.421875q-0.546875 0.421875 -0.546875 1.0q0 0.359375 0.234375 0.65625q0.21875 0.296875 0.71875 0.5q0.28125 0.109375 1.65625 0.484375q1.984375 0.53125 2.765625 0.875q0.796875 0.328125 1.234375 0.984375q0.453125 0.640625 0.453125 1.59375q0 0.9375 -0.546875 1.765625q-0.546875 0.828125 -1.578125 1.28125q-1.03125 0.453125 -2.328125 0.453125q-2.15625 0 -3.296875 -0.890625q-1.125 -0.90625 -1.4375 -2.65625zm15.5078125 1.625l0.265625 1.65625q-0.78125 0.15625 -1.40625 0.15625q-1.03125 0 -1.59375 -0.3125q-0.5625 -0.328125 -0.796875 -0.84375q-0.21875 -0.53125 -0.21875 -2.21875l0 -6.375l-1.375 0l0 -1.453125l1.375 0l0 -2.734375l1.859375 -1.125l0 3.859375l1.890625 0l0 1.453125l-1.890625 0l0 6.46875q0 0.8125 0.09375 1.046875q0.109375 0.21875 0.328125 0.359375q0.234375 0.125 0.640625 0.125q0.3125 0 0.828125 -0.0625z" fill-rule="nonzero"/><path fill="#595959" d="m564.17456 363.87946l0 -15.265625l1.875 0l0 5.46875q1.3125 -1.515625 3.3125 -1.515625q1.234375 0 2.140625 0.484375q0.90625 0.484375 1.296875 1.34375q0.390625 0.84375 0.390625 2.46875l0 7.015625l-1.875 0l0 -7.015625q0 -1.40625 -0.609375 -2.046875q-0.609375 -0.640625 -1.734375 -0.640625q-0.828125 0 -1.5625 0.4375q-0.734375 0.4375 -1.046875 1.171875q-0.3125 0.734375 -0.3125 2.046875l0 6.046875l-1.875 0zm19.43982 -3.5625l1.921875 0.234375q-0.453125 1.703125 -1.6875 2.640625q-1.234375 0.9375 -3.171875 0.9375q-2.421875 0 -3.84375 -1.484375q-1.421875 -1.5 -1.421875 -4.203125q0 -2.796875 1.4375 -4.328125q1.4375 -1.546875 3.734375 -1.546875q2.21875 0 3.609375 1.515625q1.40625 1.5 1.40625 4.25q0 0.15625 0 0.5l-8.25 0q0.109375 1.8125 1.03125 2.78125q0.921875 0.96875 2.3125 0.96875q1.03125 0 1.75 -0.53125q0.734375 -0.546875 1.171875 -1.734375zm-6.15625 -3.03125l6.171875 0q-0.125 -1.390625 -0.703125 -2.09375q-0.90625 -1.078125 -2.328125 -1.078125q-1.296875 0 -2.171875 0.859375q-0.875 0.859375 -0.96875 2.3125zm17.65857 5.234375q-1.046875 0.875 -2.015625 1.25q-0.953125 0.359375 -2.0625 0.359375q-1.8125 0 -2.796875 -0.890625q-0.984375 -0.890625 -0.984375 -2.28125q0 -0.8125 0.375 -1.484375q0.375 -0.671875 0.96875 -1.078125q0.59375 -0.40625 1.34375 -0.609375q0.5625 -0.140625 1.671875 -0.28125q2.265625 -0.265625 3.34375 -0.640625q0.015625 -0.390625 0.015625 -0.5q0 -1.140625 -0.53125 -1.609375q-0.71875 -0.640625 -2.140625 -0.640625q-1.328125 0 -1.953125 0.46875q-0.625 0.46875 -0.9375 1.640625l-1.828125 -0.25q0.25 -1.171875 0.8125 -1.890625q0.578125 -0.734375 1.65625 -1.125q1.09375 -0.390625 2.515625 -0.390625q1.421875 0 2.296875 0.34375q0.890625 0.328125 1.3125 0.828125q0.421875 0.5 0.578125 1.28125q0.09375 0.46875 0.09375 1.71875l0 2.5q0 2.625 0.125 3.3125q0.125 0.6875 0.46875 1.328125l-1.953125 0q-0.296875 -0.578125 -0.375 -1.359375zm-0.15625 -4.1875q-1.015625 0.40625 -3.0625 0.703125q-1.15625 0.171875 -1.640625 0.375q-0.46875 0.203125 -0.734375 0.609375q-0.265625 0.40625 -0.265625 0.890625q0 0.75 0.5625 1.25q0.578125 0.5 1.671875 0.5q1.078125 0 1.921875 -0.46875q0.84375 -0.484375 1.25 -1.296875q0.296875 -0.640625 0.296875 -1.875l0 -0.6875zm11.971069 5.546875l0 -1.390625q-1.046875 1.640625 -3.09375 1.640625q-1.3125 0 -2.421875 -0.71875q-1.109375 -0.734375 -1.71875 -2.046875q-0.609375 -1.3125 -0.609375 -3.0q0 -1.65625 0.546875 -3.0q0.546875 -1.359375 1.65625 -2.078125q1.109375 -0.71875 2.46875 -0.71875q1.0 0 1.78125 0.421875q0.78125 0.421875 1.265625 1.09375l0 -5.46875l1.875 0l0 15.265625l-1.75 0zm-5.921875 -5.515625q0 2.125 0.890625 3.171875q0.90625 1.046875 2.125 1.046875q1.21875 0 2.078125 -1.0q0.859375 -1.0 0.859375 -3.0625q0 -2.28125 -0.875 -3.34375q-0.875 -1.0625 -2.15625 -1.0625q-1.25 0 -2.09375 1.03125q-0.828125 1.015625 -0.828125 3.21875zm10.627319 -7.59375l0 -2.15625l1.875 0l0 2.15625l-1.875 0zm0 13.109375l0 -11.0625l1.875 0l0 11.0625l-1.875 0zm4.7228394 0l0 -11.0625l1.6875 0l0 1.578125q1.21875 -1.828125 3.515625 -1.828125q1.0 0 1.84375 0.359375q0.84375 0.359375 1.25 0.953125q0.421875 0.578125 0.59375 1.375q0.09375 0.515625 0.09375 1.828125l0 6.796875l-1.875 0l0 -6.734375q0 -1.140625 -0.21875 -1.703125q-0.21875 -0.578125 -0.78125 -0.90625q-0.546875 -0.34375 -1.296875 -0.34375q-1.203125 0 -2.078125 0.765625q-0.859375 0.75 -0.859375 2.875l0 6.046875l-1.875 0zm11.517944 0.921875l1.828125 0.265625q0.109375 0.84375 0.625 1.234375q0.703125 0.515625 1.90625 0.515625q1.3125 0 2.015625 -0.53125q0.703125 -0.515625 0.953125 -1.453125q0.15625 -0.5625 0.140625 -2.40625q-1.234375 1.453125 -3.0625 1.453125q-2.28125 0 -3.53125 -1.640625q-1.25 -1.65625 -1.25 -3.953125q0 -1.578125 0.5625 -2.921875q0.578125 -1.34375 1.671875 -2.0625q1.09375 -0.734375 2.5625 -0.734375q1.953125 0 3.21875 1.578125l0 -1.328125l1.734375 0l0 9.5625q0 2.578125 -0.53125 3.65625q-0.515625 1.078125 -1.65625 1.703125q-1.140625 0.625 -2.8125 0.625q-1.984375 0 -3.203125 -0.890625q-1.21875 -0.890625 -1.171875 -2.671875zm1.546875 -6.65625q0 2.1875 0.859375 3.1875q0.875 1.0 2.171875 1.0q1.296875 0 2.171875 -1.0q0.875 -1.0 0.875 -3.125q0 -2.03125 -0.90625 -3.0625q-0.890625 -1.03125 -2.171875 -1.03125q-1.25 0 -2.125 1.015625q-0.875 1.015625 -0.875 3.015625zm20.146729 3.03125l0 -4.203125l-4.15625 0l0 -1.734375l4.15625 0l0 -4.15625l1.765625 0l0 4.15625l4.15625 0l0 1.734375l-4.15625 0l0 4.203125l-1.765625 0zm5.921875 2.703125l-10.078125 0l0 -1.75l10.078125 0l0 1.75zm14.6936035 0l-1.875 0l0 -11.9375q-0.6875 0.640625 -1.78125 1.28125q-1.09375 0.640625 -1.96875 0.96875l0 -1.8125q1.5625 -0.734375 2.734375 -1.78125q1.1875 -1.0625 1.671875 -2.046875l1.21875 0l0 15.328125zm4.7991943 -7.53125q0 -2.703125 0.546875 -4.34375q0.5625 -1.65625 1.65625 -2.546875q1.109375 -0.90625 2.765625 -0.90625q1.234375 0 2.15625 0.5q0.9375 0.484375 1.53125 1.421875q0.609375 0.9375 0.953125 2.28125q0.34375 1.328125 0.34375 3.59375q0 2.6875 -0.5625 4.34375q-0.546875 1.640625 -1.640625 2.546875q-1.09375 0.90625 -2.78125 0.90625q-2.203125 0 -3.46875 -1.59375q-1.5 -1.90625 -1.5 -6.203125zm1.921875 0q0 3.765625 0.875 5.015625q0.890625 1.234375 2.171875 1.234375q1.296875 0 2.171875 -1.25q0.890625 -1.25 0.890625 -5.0q0 -3.765625 -0.890625 -5.0q-0.875 -1.25 -2.1875 -1.25q-1.296875 0 -2.0625 1.09375q-0.96875 1.40625 -0.96875 5.15625z" fill-rule="nonzero"/><path fill="#595959" d="m686.8477 351.67633q0 -1.390625 0.96875 -2.359375q0.984375 -0.96875 2.359375 -0.96875q1.375 0 2.34375 0.984375q0.984375 0.96875 0.984375 2.34375q0 1.375 -0.984375 2.34375q-0.96875 0.96875 -2.34375 0.96875q-1.375 0 -2.359375 -0.96875q-0.96875 -0.96875 -0.96875 -2.34375zm1.734375 0q0 0.65625 0.46875 1.125q0.46875 0.46875 1.125 0.46875q0.65625 0 1.125 -0.46875q0.46875 -0.46875 0.46875 -1.125q0 -0.65625 -0.46875 -1.125q-0.46875 -0.46875 -1.125 -0.46875q-0.65625 0 -1.125 0.46875q-0.46875 0.46875 -0.46875 1.125z" fill-rule="nonzero"/><path fill="#eeeeee" d="m497.71918 343.5407l-111.78262 -111.78261c-9.087952 -9.087952 -9.087952 -23.822418 0 -32.910355l17.088043 -17.088043l-13.903931 -13.903946l47.718994 -4.9425964l-4.9425964 47.718994l-13.903961 -13.903946l-17.088043 17.088043c-0.82107544 0.8210602 -0.82107544 2.1522675 0 2.973343l111.78262 111.78261z" fill-rule="evenodd"/><path stroke="#595959" stroke-width="1.0" stroke-linejoin="round" stroke-linecap="butt" d="m497.71918 343.5407l-111.78262 -111.78261c-9.087952 -9.087952 -9.087952 -23.822418 0 -32.910355l17.088043 -17.088043l-13.903931 -13.903946l47.718994 -4.9425964l-4.9425964 47.718994l-13.903961 -13.903946l-17.088043 17.088043c-0.82107544 0.8210602 -0.82107544 2.1522675 0 2.973343l111.78262 111.78261z" fill-rule="evenodd"/><path fill="#000000" fill-opacity="0.0" d="m582.53284 206.83464l379.49603 0l0 48.472443l-379.49603 0z" fill-rule="evenodd"/><path fill="#000000" fill-opacity="0.0" d="m377.6843 178.10466l167.2756 167.27559l-29.700806 29.700806l-167.2756 -167.2756z" fill-rule="evenodd"/><path fill="#595959" d="m385.87558 224.3666l5.9441223 -5.9441223l-1.0274963 -1.0275116l0.894928 -0.894928l1.0274963 1.0275116l0.7292175 -0.7292023q0.68499756 -0.6850128 1.1490479 -0.9059906q0.6187134 -0.28726196 1.3147583 -0.14363098q0.69607544 0.14363098 1.458435 0.9059906q0.4861145 0.48612976 0.9722595 1.1932373l-1.1932373 0.83969116q-0.28726196 -0.41984558 -0.607666 -0.74024963q-0.5303345 -0.5303345 -0.9833374 -0.5192871q-0.44192505 0 -1.060669 0.61872864l-0.62976074 0.62976074l1.3368835 1.3368683l-0.894928 0.89494324l-1.3368835 -1.3368835l-5.9441223 5.9441223l-1.1490479 -1.1490479zm6.383087 -0.4670105q1.9003601 -1.9003448 3.855957 -1.7567139q1.6462402 0.121536255 2.916809 1.3921204q1.4142151 1.4141998 1.381073 3.2372131q-0.022094727 1.811966 -1.6572876 3.4471436q-1.3147583 1.3147888 -2.4748535 1.6793823q-1.1490784 0.3535614 -2.3312683 0.011047363q-1.1711426 -0.33145142 -2.0660706 -1.2263794q-1.4363098 -1.4363098 -1.4031677 -3.2372284q0.044189453 -1.811966 1.7788086 -3.546585zm1.1932678 1.1932373q-1.3147888 1.3147888 -1.4142151 2.5411682q-0.07736206 1.2263947 0.7954712 2.099228q0.8617859 0.8617859 2.0881958 0.7844391q1.2374268 -0.088378906 2.5853577 -1.4363098q1.2705688 -1.2705841 1.3479309 -2.4969635q0.07733154 -1.2263947 -0.78445435 -2.0881805q-0.87283325 -0.87283325 -2.0992432 -0.79548645q-1.2042847 0.07733154 -2.519043 1.3921051zm3.1382751 9.988403l6.8390503 -6.8390503l1.0385742 1.038559l-1.0385742 1.038559q1.1269531 -0.33145142 1.6904297 -0.23200989q0.5745239 0.11047363 0.9833374 0.51927185q0.5855713 0.5855713 0.8175659 1.5688934l-1.4694519 0.67396545q-0.17675781 -0.6850128 -0.59661865 -1.1048584q-0.38668823 -0.38668823 -0.9170227 -0.45298767q-0.5303345 -0.06628418 -1.060669 0.1988678q-0.81759644 0.41984558 -1.5578308 1.1601105l-3.5797424 3.5797272l-1.1490479 -1.1490479zm14.952484 10.555145l1.0495911 1.3368683q-1.336853 0.76234436 -2.684784 0.5855713q-1.3368835 -0.18782043 -2.5301208 -1.381073q-1.502594 -1.502594 -1.4694519 -3.3035126q0.055236816 -1.8009033 1.7235718 -3.4692383q1.7346191 -1.7346191 3.5686646 -1.8009186q1.8451233 -0.055236816 3.2593384 1.3589783q1.3700256 1.3700256 1.2926636 3.170929q-0.055236816 1.8009186 -1.7456665 3.4913483q-0.11047363 0.11047363 -0.3093567 0.3093567l-5.104431 -5.104431q-1.0606384 1.1932373 -1.093811 2.3754425q-0.022094727 1.1711426 0.8286438 2.021881q0.6408386 0.6408081 1.4252625 0.76234436q0.7955017 0.11048889 1.7898865 -0.35354614zm-1.9335022 -5.6900024l3.8227844 3.8227997q0.78445435 -0.9391327 0.8507385 -1.7346344q0.12155151 -1.2263794 -0.7623291 -2.11026q-0.7955017 -0.7955017 -1.8893127 -0.8065491q-1.0717163 -0.011047363 -2.021881 0.8286438zm7.690277 14.164734q-1.1932373 -0.11048889 -2.021881 -0.4750824q-0.8065491 -0.36460876 -1.4915466 -1.0496063q-1.1269531 -1.1269531 -1.18219 -2.2870483q-0.055236816 -1.1601105 0.7955017 -2.010849q0.50823975 -0.5082245 1.1490479 -0.68499756q0.65185547 -0.1878357 1.2595215 -0.06629944q0.62976074 0.121536255 1.2263794 0.45298767q0.41986084 0.24307251 1.2043152 0.8507385q1.5688782 1.237442 2.4638062 1.668335q0.25411987 -0.23202515 0.3093567 -0.28726196q0.7071228 -0.70710754 0.6739807 -1.3368683q-0.055236816 -0.8286438 -0.93914795 -1.7125244q-0.8175659 -0.81759644 -1.4915466 -0.91703796q-0.6739502 -0.09942627 -1.5799255 0.43089294l-0.9833374 -1.2926788q0.87283325 -0.56347656 1.668335 -0.65185547q0.8065491 -0.09944153 1.7235718 0.33145142q0.9170227 0.43089294 1.789856 1.3037262q0.8838806 0.8838806 1.2153625 1.6351929q0.35354614 0.751297 0.28726196 1.3258209q-0.044189453 0.5745239 -0.41986084 1.1490479q-0.24307251 0.35354614 -1.016449 1.1269531l-1.546814 1.5467987q-1.6130676 1.6130829 -1.9666443 2.1213074q-0.34249878 0.49719238 -0.5303345 1.1048737l-1.2042847 -1.2042999q0.17678833 -0.5524292 0.607666 -1.0717163zm2.4969788 -2.6958466q-0.894928 -0.3645935 -2.3312378 -1.4473572q-0.81759644 -0.6187134 -1.2484741 -0.7844391q-0.4309082 -0.16572571 -0.83969116 -0.088394165q-0.3977661 0.088394165 -0.7071228 0.39775085q-0.46401978 0.46403503 -0.41983032 1.1269531q0.044189453 0.66290283 0.71813965 1.3368683q0.66293335 0.6629181 1.4694519 0.894928q0.8286438 0.23202515 1.579956 -0.03314209q0.5855713 -0.20991516 1.3479309 -0.9722748l0.4308777 -0.43089294zm6.5081177 8.364258l0.9833069 1.2926941q-1.3589783 0.9833069 -2.8063354 0.8838806q-1.4252625 -0.09945679 -2.5522156 -1.2264099q-1.4031677 -1.4031677 -1.336853 -3.170929q0.06628418 -1.7677612 1.7788086 -3.4802856q1.1159058 -1.1159058 2.309143 -1.5799408q1.1932373 -0.46403503 2.3533325 -0.121536255q1.1711426 0.33146667 2.0550232 1.2153473q1.1159058 1.1159058 1.259552 2.3864899q0.14361572 1.2705688 -0.69607544 2.5080261l-1.2926636 -0.9612427q0.5192871 -0.8507385 0.4529724 -1.6020355q-0.055236816 -0.76234436 -0.62976074 -1.3368683q-0.87283325 -0.87283325 -2.0550232 -0.7955017q-1.18219 0.0773468 -2.5411682 1.4363098q-1.381073 1.381073 -1.4804993 2.5411682q-0.088378906 1.1490479 0.7623596 1.9997864q0.68499756 0.68499756 1.5578308 0.71817017q0.8838806 0.044189453 1.8782654 -0.7071228zm-0.3756714 4.640381l9.446503 -9.446503l1.1600952 1.1600952l-3.3919067 3.3919067q1.745697 -0.13256836 2.9831238 1.1048584q0.7623596 0.7623596 1.016449 1.6130981q0.26516724 0.8617859 -0.022094727 1.6351624q-0.28726196 0.773407 -1.2926636 1.7788391l-4.331024 4.331024l-1.1600952 -1.1600952l4.331024 -4.331024q0.87283325 -0.87283325 0.894928 -1.6462402q0.022094727 -0.773407 -0.6739502 -1.4694519q-0.50823975 -0.50823975 -1.2374573 -0.6850281q-0.71813965 -0.18780518 -1.3700256 0.0663147q-0.6408081 0.26513672 -1.4473572 1.0716858l-3.745453 3.745453l-1.1600952 -1.1600952zm11.001892 11.001892l6.8390503 -6.8390503l1.0385742 1.0385742l-0.97229004 0.9722595q1.8782654 -0.37564087 3.3035278 1.0496216q0.6187134 0.6187134 0.9170227 1.3589783q0.29830933 0.7402344 0.1878357 1.3589478q-0.088409424 0.6187439 -0.48614502 1.2153625q-0.25411987 0.38668823 -1.060669 1.1932373l-4.2094727 4.209503l-1.1600952 -1.1600952l4.165283 -4.1653137q0.7071228 -0.7070923 0.90597534 -1.1932373q0.22097778 -0.48614502 0.088409424 -1.0385742q-0.13259888 -0.5524292 -0.59664917 -1.016449q-0.7402344 -0.7402649 -1.7567139 -0.8065491q-0.99435425 -0.06628418 -2.309143 1.2484741l-3.7344055 3.7344055l-1.1600952 -1.1600952zm14.220001 9.822662l1.0495911 1.3368835q-1.336853 0.7623596 -2.684784 0.5855713q-1.3368835 -0.1878357 -2.5301208 -1.381073q-1.502594 -1.502594 -1.4694519 -3.3034973q0.055236816 -1.8009338 1.7235718 -3.4692688q1.7346191 -1.7346191 3.5686646 -1.8009033q1.8451233 -0.055236816 3.2593384 1.3589783q1.3700256 1.3700256 1.2926636 3.170929q-0.055236816 1.8009033 -1.7456665 3.491333q-0.11047363 0.11050415 -0.3093567 0.3093567l-5.104431 -5.104431q-1.060669 1.1932678 -1.093811 2.3754578q-0.022094727 1.1711426 0.8286438 2.021881q0.6408081 0.6408081 1.4252625 0.7623291q0.7955017 0.11050415 1.7898865 -0.35354614zm-1.9335022 -5.6900024l3.8227844 3.822815q0.78445435 -0.93914795 0.8507385 -1.7346191q0.12155151 -1.2264099 -0.7623596 -2.1102905q-0.7954712 -0.7955017 -1.8892822 -0.8065491q-1.0717163 -0.011047363 -2.021881 0.8286438zm3.646515 11.800354l4.7398376 -8.938263l1.2042847 1.2042847l-2.8615723 5.0270996l-1.060669 1.8782349q0.14364624 -0.07733154 1.7677612 -1.0606384l5.093384 -2.9057922l1.1932373 1.1932678l-2.9499512 4.9828796l-0.96121216 1.6462402l1.7125244 -0.9170227l5.126526 -2.7842407l1.1269531 1.1269531l-8.982483 4.6956177l-1.2042847 -1.2042847l3.0162354 -5.1817627l0.8949585 -1.4252625l-6.6401978 3.8780212l-1.215332 -1.215332zm11.932434 11.932434l6.8390503 -6.8390503l1.0385437 1.0385742l-0.96121216 0.96121216q0.8286438 -0.1878357 1.6572876 0.044189453q0.8507385 0.23202515 1.5246887 0.90597534q0.7623596 0.7623596 0.92807007 1.5689087q0.17678833 0.7955017 -0.18780518 1.5578308q2.0108337 -0.37564087 3.3034973 0.9170532q1.0275269 1.0274963 1.0054321 2.1323547q-0.011047363 1.1159058 -1.18219 2.2870483l-4.695648 4.6956177l-1.1600952 -1.1600952l4.3089294 -4.3089294q0.69607544 -0.6960449 0.8838806 -1.1048584q0.19888306 -0.41983032 0.088409424 -0.90597534q-0.11050415 -0.4861145 -0.50823975 -0.8838806q-0.71817017 -0.71813965 -1.6793823 -0.7070923q-0.9501648 0 -1.9997864 1.0495911l-3.977478 3.977478l-1.1600952 -1.1600952l4.4415283 -4.441498q0.77337646 -0.773407 0.87283325 -1.4473572q0.09942627 -0.6739807 -0.54138184 -1.3147888q-0.48614502 -0.48614502 -1.1600952 -0.65185547q-0.6739807 -0.16574097 -1.3589783 0.14361572q-0.6739502 0.32040405 -1.6130981 1.259552l-3.5465698 3.5465698l-1.1600952 -1.1600952zm13.983154 7.1330566q1.9003601 -1.9003296 3.855957 -1.7567139q1.6462097 0.12155151 2.916809 1.3921204q1.4142151 1.4142151 1.381073 3.2372131q-0.022094727 1.8119812 -1.6572876 3.4471436q-1.3147888 1.3147888 -2.474884 1.6793823q-1.1490479 0.35354614 -2.3312378 0.011047363q-1.1711426 -0.33145142 -2.0660706 -1.2263794q-1.4363098 -1.4363098 -1.4031677 -3.2372131q0.044189453 -1.8119812 1.7788086 -3.5466003zm1.1932373 1.1932373q-1.3147583 1.3147888 -1.4142151 2.5411682q-0.07733154 1.2264099 0.7955017 2.0992432q0.8617859 0.8617859 2.0881653 0.7844238q1.2374573 -0.088378906 2.5853577 -1.4363098q1.2705994 -1.2705688 1.3479309 -2.4969482q0.07733154 -1.2264099 -0.78445435 -2.0881958q-0.87283325 -0.87283325 -2.0992126 -0.7954712q-1.2042847 0.07733154 -2.5190735 1.3920898zm5.049713 11.899811l4.2315674 -9.446503l1.2264099 1.2263794l-2.6295776 5.568451q-0.4308777 0.8949585 -0.92807007 1.8119812q0.6850281 -0.3977661 1.7235718 -0.8617859l5.6900024 -2.6627197l1.1932373 1.1932678l-9.424408 4.253662l-1.0827332 -1.0827332zm11.578857 7.181549l1.0496216 1.3368835q-1.3368835 0.7623291 -2.6848145 0.5855713q-1.336853 -0.1878357 -2.5300903 -1.381073q-1.5026245 -1.5026245 -1.4694824 -3.3035278q0.055267334 -1.8009033 1.7235718 -3.4692383q1.7346497 -1.7346191 3.568695 -1.8009033q1.8450928 -0.055236816 3.2593079 1.3589478q1.3700256 1.3700256 1.2926941 3.1709595q-0.055236816 1.8009033 -1.7456665 3.491333q-0.11050415 0.11047363 -0.3093567 0.3093567l-5.104431 -5.104431q-1.060669 1.1932373 -1.093811 2.3754272q-0.022094727 1.1711426 0.8286438 2.021881q0.6408081 0.6408386 1.4252625 0.7623596q0.7955017 0.11047363 1.789856 -0.35354614zm-1.9335022 -5.6900024l3.822815 3.8227844q0.7844238 -0.93911743 0.8507385 -1.7346191q0.121520996 -1.2263794 -0.7623596 -2.11026q-0.7955017 -0.7955017 -1.8893127 -0.8065491q-1.0716858 -0.011047363 -2.021881 0.8286438zm8.231689 5.3369446l1.3147583 -1.3147583l1.3147888 1.3147583l-1.3147888 1.3147888l-1.3147583 -1.3147888zm-5.524292 5.524292l1.3258362 -1.3258362l1.3147888 1.3147583l-1.3258362 1.3258362l-1.3147888 -1.3147583z" fill-rule="nonzero"/></g></svg>